<svg width="141" height="140" viewBox="0 0 141 140" fill="none" xmlns="http://www.w3.org/2000/svg">
<path d="M96.6228 40.8251L97.0636 41.4084L95.6665 43.3011C94.8397 44.4211 93.6524 45.0303 92.468 45.0303H84.6C82.5091 45.0303 80.4451 43.1566 80.4451 40.5016V17.7018C80.4451 15.0469 82.5091 13.1731 84.6 13.1731H92.468C93.6524 13.1731 94.8397 13.7823 95.6665 14.9023L97.0976 16.8412L96.6228 17.4695V18.9786V39.316V40.8251ZM65.5878 19.0098V40.7752C65.5878 40.8712 65.5875 40.9962 65.5871 41.1443C65.5865 41.4054 65.5856 41.7386 65.586 42.112H59.0659C60.2226 37.7299 60.8625 32.8634 60.8625 29.1017C60.8625 25.5155 60.2938 22.1561 59.3375 19.0098H65.5878ZM43.125 103.307L23.9936 65.6637C24.5216 65.6902 25.0537 65.7038 25.5898 65.7038C34.7861 65.7038 43.121 62.0068 49.3644 56.0797L74.9465 103.307H43.125ZM4.91211 29.1017C4.91211 16.9278 14.3742 7.33632 25.5898 7.33632C36.8053 7.33632 46.2675 16.9278 46.2675 29.1017C46.2675 41.2756 36.8053 50.8671 25.5898 50.8671C14.3742 50.8671 4.91211 41.2756 4.91211 29.1017ZM43.1157 29.1017C43.1157 19.3308 35.4103 11.013 25.5898 11.013C15.7693 11.013 8.06383 19.3308 8.06383 29.1017C8.06383 38.8727 15.7693 47.1904 25.5898 47.1904C35.4103 47.1904 43.1157 38.8727 43.1157 29.1017ZM16.1022 122.49C16.1022 119.686 17.9546 118.235 19.6451 118.235H104.27C105.96 118.235 107.813 119.686 107.813 122.49V135.5H16.1022V122.49Z" stroke="url(#paint0_linear_1299_191)" stroke-width="9"/>
<defs>
<linearGradient id="paint0_linear_1299_191" x1="70.4121" y1="0" x2="70.4121" y2="140" gradientUnits="userSpaceOnUse">
<stop stop-color="white"/>
<stop offset="1" stop-color="#3D3D3D"/>
</linearGradient>
</defs>
</svg>
