<svg width="140" height="140" viewBox="0 0 140 140" fill="none" xmlns="http://www.w3.org/2000/svg">
<path id="Vector" d="M96.2107 40.8251L96.6515 41.4084L95.2544 43.3011C94.4276 44.4211 93.2403 45.0303 92.0559 45.0303H84.1879C82.097 45.0303 80.033 43.1566 80.033 40.5016V17.7018C80.033 15.0469 82.097 13.1731 84.1879 13.1731H92.0559C93.2403 13.1731 94.4276 13.7823 95.2544 14.9023L96.6855 16.8412L96.2107 17.4695V18.9786V39.316V40.8251ZM65.1757 19.0098V40.7752C65.1757 40.8712 65.1754 40.9962 65.175 41.1443C65.1744 41.4054 65.1735 41.7386 65.1739 42.112H58.6538C59.8105 37.7299 60.4504 32.8634 60.4504 29.1017C60.4504 25.5155 59.8817 22.1561 58.9254 19.0098H65.1757ZM42.7129 103.307L23.5815 65.6637C24.1095 65.6902 24.6416 65.7038 25.1777 65.7038C34.374 65.7038 42.7089 62.0068 48.9523 56.0797L74.5344 103.307H42.7129ZM4.5 29.1017C4.5 16.9278 13.9621 7.33632 25.1777 7.33632C36.3932 7.33632 45.8554 16.9278 45.8554 29.1017C45.8554 41.2756 36.3932 50.8671 25.1777 50.8671C13.9621 50.8671 4.5 41.2756 4.5 29.1017ZM42.7036 29.1017C42.7036 19.3308 34.9981 11.013 25.1777 11.013C15.3572 11.013 7.65173 19.3308 7.65173 29.1017C7.65173 38.8727 15.3572 47.1904 25.1777 47.1904C34.9981 47.1904 42.7036 38.8727 42.7036 29.1017ZM15.6901 122.49C15.6901 119.686 17.5425 118.235 19.2329 118.235H103.858C105.548 118.235 107.401 119.686 107.401 122.49V135.5H15.6901V122.49Z" stroke="#77C611" stroke-width="9"/>
</svg>
