<svg width="141" height="140" viewBox="0 0 141 140" fill="none" xmlns="http://www.w3.org/2000/svg">
<path fill-rule="evenodd" clip-rule="evenodd" d="M108.183 13.3299C111.089 11.6806 112.851 10.692 114.215 10.1408C114.844 9.88669 115.209 9.80393 115.404 9.77827C115.551 9.7588 115.598 9.77143 115.62 9.77762L115.627 9.77931C115.649 9.78491 115.69 9.79546 115.799 9.87757C115.945 9.98905 116.212 10.2326 116.624 10.7564C117.519 11.8963 118.538 13.61 120.217 16.4698L127.046 28.0961C128.726 30.957 129.725 32.6796 130.281 34.0082C130.536 34.6186 130.613 34.9583 130.635 35.1231C130.646 35.1967 130.644 35.2333 130.644 35.2333L130.641 35.2451L130.635 35.2614C130.635 35.2614 130.615 35.3008 130.564 35.3645C130.454 35.5048 130.208 35.7677 129.67 36.1751C128.505 37.0589 126.755 38.0641 123.847 39.7142L99.5245 53.5183C96.7714 55.0805 95.1266 56.0024 93.8608 56.513C93.2806 56.7467 92.9622 56.8153 92.8124 56.8348L92.772 56.8392L92.7395 56.8414L92.7199 56.8416L92.703 56.8317C92.6913 56.8242 92.6711 56.8109 92.6431 56.7896C92.5233 56.6976 92.2817 56.479 91.8962 55.9868C91.0556 54.9118 90.0912 53.2908 88.4881 50.5616L81.1951 38.1442C79.549 35.3412 78.5736 33.6601 78.0312 32.365C77.7824 31.7709 77.7082 31.4443 77.6874 31.2905C77.6821 31.2549 77.6802 31.2309 77.6795 31.2167V31.1997L77.688 31.1853L77.703 31.1631L77.7316 31.1249C77.8267 31.0024 78.054 30.7565 78.5664 30.3664C79.6838 29.516 81.369 28.5476 84.1963 26.9431L108.183 13.3299ZM118.111 0.333258C115.323 -0.401245 112.793 0.181018 110.556 1.08469C108.517 1.90866 106.185 3.23285 103.616 4.69112L79.1192 18.5937C76.6338 20.004 74.3573 21.2953 72.6507 22.5944C70.7818 24.0168 69.0068 25.8741 68.256 28.6314L45.5964 41.4914L45.3406 41.6365C42.8549 43.0469 40.5788 44.3382 38.8722 45.6373C37.002 47.0608 35.2254 48.9198 34.4752 51.6807L12.1558 64.3478L11.8998 64.493C9.33242 65.9497 6.99868 67.2741 5.25091 68.5999C3.3382 70.0507 1.52383 71.9377 0.759304 74.7429C-0.00749713 77.5559 0.605696 80.1012 1.5319 82.3165C2.37443 84.3312 3.72584 86.6317 5.20598 89.151L5.50571 89.6615C6.9863 92.1828 8.33667 94.4827 9.68899 96.205C11.1786 98.1024 13.088 99.8606 15.8842 100.597C18.6727 101.332 21.2022 100.749 23.4389 99.8456C25.4785 99.0219 27.8111 97.6974 30.38 96.2388L52.8757 83.4723L52.9992 83.5061C55.7172 84.2341 58.1774 83.6657 60.3204 82.8009C60.629 82.6772 60.9435 82.5405 61.2652 82.394L39.8648 133.22C38.8182 135.706 39.9849 138.57 42.4706 139.616C44.9565 140.663 47.8201 139.496 48.8667 137.01L70.412 85.8405L91.9574 137.01C93.0038 139.496 95.8676 140.663 98.3537 139.616C100.839 138.57 102.006 135.706 100.959 133.22L76.0946 74.1673L90.0626 66.2408L90.1921 66.2759C92.9101 67.0046 95.3701 66.4361 97.5137 65.5714C99.4587 64.7874 101.677 63.5274 104.094 62.1554L128.924 48.0637C131.492 46.6069 133.825 45.2827 135.573 43.9568C137.486 42.5059 139.3 40.6186 140.065 37.8138C140.832 35.0008 140.218 32.4556 139.292 30.2404C138.449 28.2252 137.098 25.9248 135.618 23.4053L128.639 11.5232L128.49 11.269C127.009 8.74749 125.659 6.4478 124.307 4.72511C122.817 2.82757 120.908 1.06972 118.111 0.333258ZM16.9768 72.8422L36.4954 61.7647C37.1858 63.0553 37.9945 64.4318 38.8453 65.88L38.9943 66.134L43.0194 72.9867C43.7704 74.2656 44.4885 75.4891 45.1914 76.6026L25.8129 87.6006C22.9067 89.25 21.1443 90.2384 19.7801 90.7893C19.1511 91.0433 18.7867 91.1266 18.5921 91.152C18.4447 91.1715 18.3979 91.1585 18.3751 91.1527L18.3685 91.1507C18.3465 91.1455 18.3053 91.1351 18.197 91.0524C18.0499 90.941 17.7829 90.6975 17.3717 90.174C16.4769 89.0338 15.4582 87.32 13.7785 84.4607C12.0981 81.5996 11.0987 79.8773 10.5433 78.5482C10.2881 77.9381 10.211 77.5982 10.1884 77.4335C10.1783 77.3592 10.1804 77.3228 10.1804 77.3228L10.1828 77.3117L10.1888 77.2954C10.1888 77.2954 10.2094 77.2557 10.2594 77.1919C10.3695 77.0519 10.6168 76.7888 11.1539 76.3812C12.3189 75.4976 14.0694 74.4922 16.9768 72.8422ZM70.272 38.7178L50.4173 49.986C47.5903 51.5905 45.9052 52.5589 44.7879 53.4093C44.2754 53.7994 44.0481 54.0453 43.9528 54.1679C43.9307 54.1962 43.9171 54.2162 43.9095 54.2282L43.9008 54.2427L43.9011 54.2596C43.9017 54.2738 43.9035 54.2978 43.9085 54.3335C43.9297 54.4872 44.0037 54.8139 44.2525 55.4079C44.7949 56.703 45.7702 58.3839 47.4164 61.1871L51.2954 67.7912C52.8984 70.5208 53.8623 72.1415 54.7034 73.2166C55.0885 73.7089 55.33 73.9276 55.4504 74.0195C55.4783 74.0409 55.4981 74.054 55.5102 74.0618L55.5269 74.0715H55.5464C55.5606 74.0709 55.5843 74.0689 55.6192 74.0644C55.7695 74.0449 56.0879 73.9765 56.6675 73.7427C57.9332 73.2322 59.5787 72.3102 62.3311 70.748L67.3737 67.8862L72.2782 65.1025L82.3822 59.3685C81.6796 58.2563 80.9627 57.0347 80.2125 55.7571L72.624 42.8371C71.7723 41.3874 70.9629 40.0095 70.272 38.7178Z" fill="url(#paint0_linear_1299_173)"/>
<defs>
<linearGradient id="paint0_linear_1299_173" x1="70.4121" y1="0" x2="70.4121" y2="140" gradientUnits="userSpaceOnUse">
<stop stop-color="white"/>
<stop offset="1" stop-color="#3D3D3D"/>
</linearGradient>
</defs>
</svg>
