<svg width="140" height="140" viewBox="0 0 140 140" fill="none" xmlns="http://www.w3.org/2000/svg">
<path id="Vector" fill-rule="evenodd" clip-rule="evenodd" d="M107.771 13.3299C110.677 11.6806 112.439 10.692 113.803 10.1408C114.432 9.88669 114.797 9.80393 114.991 9.77827C115.139 9.7588 115.186 9.77143 115.208 9.77762L115.215 9.77931C115.237 9.78491 115.278 9.79546 115.387 9.87757C115.533 9.98905 115.8 10.2326 116.212 10.7564C117.106 11.8963 118.125 13.61 119.805 16.4698L126.633 28.0961C128.313 30.957 129.313 32.6796 129.868 34.0082C130.124 34.6186 130.201 34.9583 130.223 35.1231C130.234 35.1967 130.232 35.2333 130.232 35.2333L130.229 35.2451L130.223 35.2614C130.223 35.2614 130.202 35.3008 130.152 35.3645C130.042 35.5048 129.795 35.7677 129.258 36.1751C128.093 37.0589 126.342 38.0641 123.435 39.7142L99.1124 53.5183C96.3593 55.0805 94.7145 56.0024 93.4486 56.513C92.8685 56.7467 92.55 56.8153 92.4003 56.8348L92.3599 56.8392L92.3274 56.8414L92.3078 56.8416L92.2909 56.8317C92.2792 56.8242 92.259 56.8109 92.231 56.7896C92.1112 56.6976 91.8696 56.479 91.4841 55.9868C90.6435 54.9118 89.6791 53.2908 88.076 50.5616L80.783 38.1442C79.1369 35.3412 78.1615 33.6601 77.6191 32.365C77.3703 31.7709 77.2961 31.4443 77.2752 31.2905C77.27 31.2549 77.2681 31.2309 77.2674 31.2167V31.1997L77.2759 31.1853L77.2909 31.1631L77.3195 31.1249C77.4146 31.0024 77.6418 30.7565 78.1543 30.3664C79.2717 29.516 80.9569 28.5476 83.7842 26.9431L107.771 13.3299ZM117.699 0.333258C114.911 -0.401245 112.381 0.181018 110.144 1.08469C108.105 1.90866 105.772 3.23285 103.204 4.69112L78.7071 18.5937C76.2217 20.004 73.9452 21.2953 72.2386 22.5944C70.3697 24.0168 68.5947 25.8741 67.8439 28.6314L45.1843 41.4914L44.9285 41.6365C42.4428 43.0469 40.1667 44.3382 38.46 45.6373C36.5899 47.0608 34.8133 48.9198 34.0631 51.6807L11.7437 64.3478L11.4877 64.493C8.92031 65.9497 6.58657 67.2741 4.8388 68.5999C2.9261 70.0507 1.11172 71.9377 0.347194 74.7429C-0.419607 77.5559 0.193586 80.1012 1.11979 82.3165C1.96232 84.3312 3.31373 86.6317 4.79387 89.151L5.0936 89.6615C6.57419 92.1828 7.92456 94.4827 9.27688 96.205C10.7665 98.1024 12.6759 99.8606 15.4721 100.597C18.2606 101.332 20.7901 100.749 23.0268 99.8456C25.0664 99.0219 27.399 97.6974 29.9679 96.2388L52.4636 83.4723L52.5871 83.5061C55.3051 84.2341 57.7653 83.6657 59.9083 82.8009C60.2169 82.6772 60.5314 82.5405 60.8531 82.394L39.4527 133.22C38.4061 135.706 39.5727 138.57 42.0585 139.616C44.5444 140.663 47.408 139.496 48.4546 137.01L69.9999 85.8405L91.5453 137.01C92.5917 139.496 95.4555 140.663 97.9416 139.616C100.427 138.57 101.594 135.706 100.547 133.22L75.6825 74.1673L89.6505 66.2408L89.78 66.2759C92.498 67.0046 94.958 66.4361 97.1016 65.5714C99.0466 64.7874 101.265 63.5274 103.682 62.1554L128.512 48.0637C131.08 46.6069 133.413 45.2827 135.161 43.9568C137.073 42.5059 138.888 40.6186 139.653 37.8138C140.42 35.0008 139.806 32.4556 138.88 30.2404C138.037 28.2252 136.686 25.9248 135.206 23.4053L128.227 11.5232L128.078 11.269C126.597 8.74749 125.247 6.4478 123.895 4.72511C122.405 2.82757 120.496 1.06972 117.699 0.333258ZM16.5647 72.8422L36.0833 61.7647C36.7737 63.0553 37.5824 64.4318 38.4332 65.88L38.5822 66.134L42.6073 72.9867C43.3583 74.2656 44.0764 75.4891 44.7793 76.6026L25.4008 87.6006C22.4946 89.25 20.7322 90.2384 19.368 90.7893C18.739 91.0433 18.3746 91.1266 18.18 91.152C18.0326 91.1715 17.9858 91.1585 17.963 91.1527L17.9564 91.1507C17.9344 91.1455 17.8932 91.1351 17.7849 91.0524C17.6378 90.941 17.3708 90.6975 16.9596 90.174C16.0648 89.0338 15.0461 87.32 13.3664 84.4607C11.686 81.5996 10.6866 79.8773 10.1312 78.5482C9.87595 77.9381 9.79885 77.5982 9.77632 77.4335C9.76616 77.3592 9.76831 77.3228 9.76831 77.3228L9.77065 77.3117L9.77671 77.2954C9.77671 77.2954 9.79728 77.2557 9.84729 77.1919C9.9574 77.0519 10.2047 76.7888 10.7418 76.3812C11.9068 75.4976 13.6573 74.4922 16.5647 72.8422ZM69.8599 38.7178L50.0052 49.986C47.1782 51.5905 45.4931 52.5589 44.3758 53.4093C43.8633 53.7994 43.636 54.0453 43.5407 54.1679C43.5186 54.1962 43.505 54.2162 43.4974 54.2282L43.4887 54.2427L43.489 54.2596C43.4896 54.2738 43.4914 54.2978 43.4963 54.3335C43.5176 54.4872 43.5915 54.8139 43.8404 55.4079C44.3828 56.703 45.3581 58.3839 47.0043 61.1871L50.8832 67.7912C52.4863 70.5208 53.4502 72.1415 54.2913 73.2166C54.6764 73.7089 54.9179 73.9276 55.0383 74.0195C55.0662 74.0409 55.086 74.054 55.0981 74.0618L55.1148 74.0715H55.1343C55.1485 74.0709 55.1722 74.0689 55.2071 74.0644C55.3573 74.0449 55.6758 73.9765 56.2554 73.7427C57.5211 73.2322 59.1666 72.3102 61.919 70.748L66.9616 67.8862L71.8661 65.1025L81.9701 59.3685C81.2675 58.2563 80.5506 57.0347 79.8004 55.7571L72.2119 42.8371C71.3601 41.3874 70.5508 40.0095 69.8599 38.7178Z" fill="#7AC912"/>
</svg>
