<svg width="160" height="140" viewBox="0 0 160 140" fill="none" xmlns="http://www.w3.org/2000/svg">
<path d="M156.2 102.647H145.76V13.8383C145.76 6.20779 140.033 0 132.992 0H26.8319C19.7915 0 14.0637 6.20779 14.0637 13.8383V102.647H3.6241C1.85025 102.647 0.412109 104.205 0.412109 106.128V111.118C0.412109 120.844 7.71307 128.756 16.6869 128.756H132.109L141.543 138.98C142.17 139.66 142.992 140 143.814 140C144.636 140 145.458 139.66 146.085 138.98L156.306 127.903C156.908 127.25 157.247 126.364 157.247 125.441C157.247 124.518 156.909 123.633 156.306 122.979L155.694 122.315C158.013 119.267 159.412 115.368 159.412 111.117V106.128C159.412 104.205 157.974 102.647 156.2 102.647ZM20.4877 13.8383C20.4877 10.0468 23.3336 6.96272 26.8316 6.96272H132.992C136.491 6.96272 139.336 10.0468 139.336 13.8383V102.647H137.546L112.138 75.1101H127.259C129.033 75.1101 130.471 73.551 130.471 71.6289C130.471 69.7067 129.032 68.1477 127.259 68.1477H112.132C114.813 60.0904 114.926 51.2482 112.47 43.1247H114.603C116.377 43.1247 117.815 41.5657 117.815 39.6435C117.815 37.721 116.377 36.1623 114.603 36.1623H109.626C108.097 33.2496 106.191 30.5078 103.901 28.0263C103.724 27.8344 103.545 27.6459 103.365 27.4588H113.439C115.213 27.4588 116.651 25.8998 116.651 23.9776C116.651 22.0551 115.212 20.4964 113.439 20.4964H94.8165C94.6075 20.4964 94.4035 20.5196 94.2057 20.561C89.4947 18.1071 84.298 16.8102 78.9165 16.8102C73.5822 16.8102 68.4284 18.0838 63.7497 20.4964H31.7305C29.9563 20.4964 28.5185 22.0554 28.5185 23.9776C28.5185 25.9001 29.9566 27.4588 31.7305 27.4588H54.4687C54.2886 27.6463 54.1094 27.8344 53.9324 28.0263C51.6632 30.4856 49.7416 33.2213 48.1922 36.1623H39.2789C37.5048 36.1623 36.0669 37.7213 36.0669 39.6435C36.0669 41.566 37.5051 43.1247 39.2789 43.1247H45.3386C44.4911 45.9243 43.9446 48.8411 43.7123 51.8282H31.7305C29.9563 51.8282 28.5185 53.3872 28.5185 55.3094C28.5185 57.2315 29.9566 58.7905 31.7305 58.7905H43.7452C44.007 61.7803 44.5877 64.6968 45.4672 67.494H39.2789C37.5048 67.494 36.0669 69.0531 36.0669 70.9752C36.0669 72.8978 37.5051 74.4564 39.2789 74.4564H48.4127C49.9226 77.2416 51.7691 79.8379 53.9321 82.1825C54.2398 82.5161 54.5535 82.8402 54.8702 83.1596H39.2789C37.5048 83.1596 36.0669 84.7186 36.0669 86.6408C36.0669 88.5633 37.5051 90.122 39.2789 90.122H64.5702C69.0281 92.2693 73.8922 93.3985 78.9165 93.3985C84.7625 93.3985 90.3912 91.8685 95.4152 88.9864L108.019 102.646H20.4877V13.8383ZM99.3582 77.2587C93.8979 83.1771 86.6382 86.4361 78.9162 86.4361C74.6334 86.4361 70.4942 85.4298 66.7235 83.5268C66.6508 83.4874 66.5775 83.4494 66.5018 83.4164C63.5593 81.8981 60.8464 79.8302 58.4741 77.2591C53.0138 71.3414 50.0071 63.4733 50.0071 55.104C50.0071 46.7348 53.0141 38.8667 58.4744 32.9487C63.9348 27.0307 71.1944 23.7719 78.9162 23.7719C86.6382 23.7719 93.8979 27.0307 99.3582 32.9487C110.63 45.1653 110.63 65.0428 99.3582 77.2587ZM16.6869 121.794C11.2552 121.794 6.83639 117.005 6.83639 111.118V109.609H17.2757H114.443L125.685 121.794H16.6869ZM143.814 131.595L100.901 85.0858C101.943 84.1851 102.945 83.2185 103.901 82.1825C104.861 81.1418 105.751 80.0547 106.578 78.9295L149.492 125.441L143.814 131.595ZM152.988 111.118C152.988 113.447 152.292 115.601 151.119 117.357L143.97 109.609H152.988V111.118Z" fill="url(#paint0_linear_1299_246)"/>
<path d="M90.1605 47.3845V43.7784C90.1605 37.0597 85.1173 31.5938 78.9181 31.5938C72.719 31.5938 67.6757 37.0597 67.6757 43.7784V47.3845C65.3842 47.918 63.6606 50.1286 63.6606 52.769V69.6011C63.6606 72.6391 65.941 75.1105 68.7437 75.1105H89.0926C91.8956 75.1105 94.1759 72.6387 94.1759 69.6015V52.7694C94.1756 50.1286 92.4521 47.918 90.1605 47.3845ZM74.0997 43.7781C74.0997 40.8987 76.2611 38.5561 78.9178 38.5561C81.5745 38.5561 83.736 40.8987 83.736 43.7781V47.2593H74.0997V43.7781ZM87.7513 68.1475H70.0846V54.222H70.8877H86.9482H87.7513V68.1475Z" fill="url(#paint1_linear_1299_246)"/>
<path d="M126.971 27.4585H127.26C129.034 27.4585 130.472 25.8995 130.472 23.9773C130.472 22.0548 129.034 20.4961 127.26 20.4961H126.971C125.197 20.4961 123.759 22.0551 123.759 23.9773C123.759 25.8995 125.198 27.4585 126.971 27.4585Z" fill="url(#paint2_linear_1299_246)"/>
<defs>
<linearGradient id="paint0_linear_1299_246" x1="79.9121" y1="0" x2="79.9121" y2="140" gradientUnits="userSpaceOnUse">
<stop stop-color="white"/>
<stop offset="1" stop-color="#3D3D3D"/>
</linearGradient>
<linearGradient id="paint1_linear_1299_246" x1="78.9183" y1="31.5938" x2="78.9183" y2="75.1105" gradientUnits="userSpaceOnUse">
<stop stop-color="white"/>
<stop offset="1" stop-color="#3D3D3D"/>
</linearGradient>
<linearGradient id="paint2_linear_1299_246" x1="127.116" y1="20.4961" x2="127.116" y2="27.4585" gradientUnits="userSpaceOnUse">
<stop stop-color="white"/>
<stop offset="1" stop-color="#3D3D3D"/>
</linearGradient>
</defs>
</svg>
