<svg width="159" height="140" viewBox="0 0 159 140" fill="none" xmlns="http://www.w3.org/2000/svg">
<g id="Group">
<g id="Group_2">
<g id="Group_3">
<path id="Vector" d="M155.788 102.647H145.348V13.8383C145.348 6.20779 139.621 0 132.58 0H26.4198C19.3794 0 13.6516 6.20779 13.6516 13.8383V102.647H3.21199C1.43814 102.647 0 104.205 0 106.128V111.118C0 120.844 7.30096 128.756 16.2748 128.756H131.697L141.131 138.98C141.758 139.66 142.58 140 143.402 140C144.224 140 145.046 139.66 145.673 138.98L155.894 127.903C156.496 127.25 156.835 126.364 156.835 125.441C156.835 124.518 156.497 123.633 155.894 122.979L155.282 122.315C157.601 119.267 159 115.368 159 111.117V106.128C159 104.205 157.562 102.647 155.788 102.647ZM20.0756 13.8383C20.0756 10.0468 22.9215 6.96272 26.4195 6.96272H132.58C136.079 6.96272 138.924 10.0468 138.924 13.8383V102.647H137.134L111.726 75.1101H126.847C128.62 75.1101 130.059 73.551 130.059 71.6289C130.059 69.7067 128.62 68.1477 126.847 68.1477H111.72C114.4 60.0904 114.514 51.2482 112.058 43.1247H114.191C115.965 43.1247 117.403 41.5657 117.403 39.6435C117.403 37.721 115.964 36.1623 114.191 36.1623H109.214C107.685 33.2496 105.778 30.5078 103.489 28.0263C103.312 27.8344 103.133 27.6459 102.952 27.4588H113.027C114.8 27.4588 116.239 25.8998 116.239 23.9776C116.239 22.0551 114.8 20.4964 113.027 20.4964H94.4044C94.1954 20.4964 93.9914 20.5196 93.7935 20.561C89.0825 18.1071 83.8859 16.8102 78.5044 16.8102C73.1701 16.8102 68.0163 18.0838 63.3376 20.4964H31.3183C29.5442 20.4964 28.1064 22.0554 28.1064 23.9776C28.1064 25.9001 29.5445 27.4588 31.3183 27.4588H54.0566C53.8765 27.6463 53.6973 27.8344 53.5203 28.0263C51.2511 30.4856 49.3294 33.2213 47.7801 36.1623H38.8668C37.0926 36.1623 35.6548 37.7213 35.6548 39.6435C35.6548 41.566 37.093 43.1247 38.8668 43.1247H44.9265C44.079 45.9243 43.5325 48.8411 43.3002 51.8282H31.3183C29.5442 51.8282 28.1064 53.3872 28.1064 55.3094C28.1064 57.2315 29.5445 58.7905 31.3183 58.7905H43.3331C43.5949 61.7803 44.1756 64.6968 45.0551 67.494H38.8668C37.0926 67.494 35.6548 69.0531 35.6548 70.9752C35.6548 72.8977 37.093 74.4564 38.8668 74.4564H48.0006C49.5105 77.2416 51.357 79.8379 53.52 82.1825C53.8277 82.5161 54.1414 82.8402 54.4581 83.1596H38.8668C37.0926 83.1596 35.6548 84.7186 35.6548 86.6408C35.6548 88.5633 37.093 90.122 38.8668 90.122H64.1581C68.616 92.2693 73.4801 93.3985 78.5044 93.3985C84.3504 93.3985 89.9791 91.8685 95.0031 88.9864L107.607 102.646H20.0756V13.8383ZM98.9461 77.2587C93.4858 83.1771 86.2261 86.4361 78.5041 86.4361C74.2213 86.4361 70.082 85.4298 66.3114 83.5268C66.2387 83.4874 66.1654 83.4494 66.0897 83.4164C63.1472 81.8981 60.4343 79.8302 58.062 77.2591C52.6017 71.3414 49.595 63.4733 49.595 55.104C49.595 46.7348 52.602 38.8667 58.0623 32.9487C63.5227 27.0307 70.7823 23.7719 78.5041 23.7719C86.2261 23.7719 93.4858 27.0307 98.9461 32.9487C110.218 45.1653 110.218 65.0428 98.9461 77.2587ZM16.2748 121.794C10.8431 121.794 6.42428 117.005 6.42428 111.118V109.609H16.8636H114.031L125.273 121.794H16.2748ZM143.402 131.595L100.489 85.0858C101.531 84.1851 102.533 83.2185 103.489 82.1825C104.449 81.1418 105.339 80.0547 106.165 78.9295L149.08 125.441L143.402 131.595ZM152.576 111.118C152.576 113.447 151.88 115.601 150.707 117.357L143.558 109.609H152.576V111.118Z" fill="#77C611"/>
<path id="Vector_2" d="M89.7484 47.3845V43.7784C89.7484 37.0597 84.7052 31.5938 78.506 31.5938C72.3069 31.5938 67.2636 37.0597 67.2636 43.7784V47.3845C64.9721 47.918 63.2485 50.1286 63.2485 52.769V69.6011C63.2485 72.6391 65.5289 75.1105 68.3316 75.1105H88.6805C91.4835 75.1105 93.7638 72.6387 93.7638 69.6015V52.7694C93.7635 50.1286 92.04 47.918 89.7484 47.3845ZM73.6876 43.7781C73.6876 40.8987 75.849 38.5561 78.5057 38.5561C81.1624 38.5561 83.3238 40.8987 83.3238 43.7781V47.2593H73.6876V43.7781ZM87.3392 68.1475H69.6725V54.222H70.4756H86.5361H87.3392V68.1475Z" fill="#77C611"/>
<path id="Vector_3" d="M126.559 27.4585H126.848C128.622 27.4585 130.06 25.8995 130.06 23.9773C130.06 22.0548 128.622 20.4961 126.848 20.4961H126.559C124.785 20.4961 123.347 22.0551 123.347 23.9773C123.347 25.8995 124.786 27.4585 126.559 27.4585Z" fill="#77C611"/>
</g>
</g>
</g>
</svg>
