<svg width="140" height="140" viewBox="0 0 140 140" fill="none" xmlns="http://www.w3.org/2000/svg">
<g id="Group 18">
<path id="Vector" d="M138.906 96.5393H1.09381C0.950162 96.5394 0.807901 96.5083 0.675163 96.4477C0.542425 96.387 0.421813 96.2981 0.320226 96.186C0.218638 96.074 0.138067 95.9408 0.0831203 95.7944C0.0281733 95.6479 -7.17996e-05 95.4908 1.37064e-07 95.3323C-7.17655e-05 95.1737 0.0281714 95.0167 0.083115 94.8702C0.138059 94.7237 0.218625 94.5906 0.320209 94.4784C0.421793 94.3663 0.542402 94.2774 0.675142 94.2167C0.807882 94.1561 0.950149 94.1249 1.09381 94.125H138.906C139.05 94.1249 139.192 94.1561 139.325 94.2167C139.458 94.2774 139.578 94.3663 139.68 94.4784C139.781 94.5906 139.862 94.7237 139.917 94.8702C139.972 95.0167 140 95.1737 140 95.3323C140 95.4908 139.972 95.6478 139.917 95.7943C139.862 95.9408 139.781 96.0738 139.68 96.1859C139.578 96.298 139.457 96.3869 139.325 96.4476C139.192 96.5082 139.05 96.5394 138.906 96.5393ZM69.9997 108.607C67.5878 108.607 65.6248 106.442 65.6248 103.778C65.6248 101.114 67.5878 98.9493 69.9997 98.9493C72.4116 98.9493 74.375 101.114 74.375 103.778C74.375 106.442 72.4116 108.607 69.9997 108.607ZM69.9997 101.364C68.7949 101.364 67.8121 102.448 67.8121 103.778C67.8121 105.108 68.7949 106.192 69.9997 106.192C71.2065 106.192 72.1873 105.108 72.1873 103.778C72.1873 102.448 71.2065 101.364 69.9997 101.364ZM51.4211 139.999C51.2572 139.999 51.0954 139.959 50.9476 139.881C50.7998 139.803 50.6698 139.689 50.5671 139.548C50.4644 139.407 50.3917 139.243 50.3542 139.066C50.3168 138.89 50.3156 138.707 50.3508 138.531L54.7258 116.801C54.8582 116.152 55.4498 115.751 56.031 115.883C56.3141 115.953 56.5605 116.144 56.7163 116.414C56.8721 116.684 56.9246 117.011 56.8623 117.324L52.4873 139.054C52.4333 139.322 52.2984 139.561 52.1046 139.733C51.9108 139.905 51.6697 139.999 51.4211 139.999ZM88.5805 139.999C88.3317 139.999 88.0902 139.906 87.8961 139.734C87.702 139.562 87.5667 139.322 87.5127 139.054L83.138 117.324C83.0755 117.011 83.1278 116.684 83.2836 116.414C83.4393 116.144 83.6857 115.953 83.9687 115.883C84.109 115.849 84.2541 115.845 84.3956 115.872C84.5372 115.9 84.6724 115.958 84.7936 116.043C84.9149 116.128 85.0197 116.239 85.102 116.369C85.1844 116.499 85.2427 116.646 85.2737 116.801L89.6489 138.531C89.6841 138.707 89.683 138.89 89.6457 139.066C89.6084 139.242 89.5358 139.406 89.4333 139.547C89.3308 139.688 89.201 139.802 89.0535 139.88C88.9059 139.958 88.7443 139.999 88.5805 139.999Z" fill="#77C611"/>
<path id="Vector_2" d="M91.8773 139.999H48.127C47.9834 139.999 47.8411 139.968 47.7083 139.907C47.5756 139.847 47.455 139.758 47.3534 139.646C47.2518 139.534 47.1712 139.4 47.1163 139.254C47.0613 139.107 47.0331 138.95 47.0332 138.792C47.0332 138.633 47.0614 138.476 47.1164 138.33C47.1713 138.183 47.2519 138.05 47.3535 137.938C47.455 137.826 47.5757 137.737 47.7084 137.676C47.8411 137.616 47.9834 137.585 48.127 137.585H91.8773C92.0209 137.585 92.1631 137.616 92.2958 137.676C92.4285 137.737 92.5491 137.826 92.6507 137.938C92.7522 138.05 92.8328 138.183 92.8877 138.33C92.9426 138.476 92.9709 138.633 92.9708 138.792C92.9709 138.95 92.9427 139.107 92.8878 139.254C92.8329 139.4 92.7523 139.533 92.6508 139.646C92.5492 139.758 92.4286 139.847 92.2959 139.907C92.1632 139.968 92.0209 139.999 91.8773 139.999ZM132.345 89.3335H7.65826C7.5146 89.3336 7.37233 89.3024 7.2396 89.2418C7.10686 89.1811 6.98625 89.0922 6.88466 88.9801C6.78308 88.8679 6.70251 88.7348 6.64757 88.5883C6.59262 88.4418 6.56438 88.2848 6.56445 88.1262V8.44948C6.56438 8.29091 6.59262 8.13389 6.64757 7.98737C6.70251 7.84086 6.78308 7.70774 6.88466 7.59562C6.98625 7.48349 7.10686 7.39457 7.2396 7.33393C7.37233 7.27328 7.5146 7.24211 7.65826 7.24219H132.345C132.95 7.24219 133.44 7.78228 133.44 8.44948V88.1262C133.44 88.2848 133.411 88.4418 133.356 88.5884C133.301 88.7349 133.221 88.868 133.119 88.9802C133.018 89.0923 132.897 89.1812 132.764 89.2418C132.631 89.3025 132.489 89.3336 132.345 89.3335ZM8.75207 86.9189H131.252V9.65677H8.75207V86.9189Z" fill="#77C611"/>
<path id="Vector_3" d="M132.343 113.479H7.65612C3.43487 113.479 0 109.688 0 105.029V8.45044C0 3.79124 3.43515 0 7.65612 0H132.343C136.565 0 140 3.79154 140 8.45044V105.028C140 109.688 136.565 113.479 132.343 113.479ZM7.65612 2.41428C4.64192 2.41428 2.18735 5.12231 2.18735 8.45044V105.028C2.18735 108.357 4.64192 111.064 7.65612 111.064H132.343C135.36 111.064 137.812 108.357 137.812 105.028V8.45044C137.812 5.12231 135.36 2.41428 132.343 2.41428H7.65612Z" fill="#77C611"/>
<path id="Vector_4" d="M132.343 118.269H7.65612C3.36458 118.269 1.36944e-07 114.558 1.36944e-07 109.819V104.99C-7.17657e-05 104.831 0.0281714 104.674 0.083115 104.528C0.138059 104.381 0.218625 104.248 0.320209 104.136C0.421793 104.024 0.542402 103.935 0.675142 103.874C0.807882 103.814 0.950149 103.783 1.09381 103.783C1.23747 103.783 1.37974 103.814 1.51248 103.874C1.64522 103.935 1.76583 104.024 1.86741 104.136C1.96899 104.248 2.04956 104.381 2.1045 104.528C2.15945 104.674 2.18769 104.831 2.18762 104.99V109.819C2.18762 113.205 4.59105 115.855 7.6564 115.855H132.344C135.412 115.855 137.812 113.205 137.812 109.819V105.028C137.812 104.869 137.841 104.712 137.896 104.566C137.95 104.419 138.031 104.286 138.133 104.174C138.234 104.062 138.355 103.973 138.488 103.912C138.62 103.851 138.763 103.82 138.906 103.82C139.05 103.82 139.192 103.851 139.325 103.912C139.458 103.973 139.578 104.062 139.68 104.174C139.782 104.286 139.862 104.419 139.917 104.566C139.972 104.712 140 104.869 140 105.028V109.819C140 114.558 136.637 118.269 132.343 118.269ZM12.0311 89.3335C11.8874 89.3336 11.7452 89.3024 11.6124 89.2418C11.4797 89.1811 11.3591 89.0922 11.2575 88.9801C11.1559 88.8679 11.0753 88.7348 11.0204 88.5883C10.9654 88.4418 10.9372 88.2848 10.9373 88.1262V8.44948C10.9372 8.29091 10.9654 8.13389 11.0204 7.98737C11.0753 7.84086 11.1559 7.70774 11.2575 7.59562C11.3591 7.48349 11.4797 7.39457 11.6124 7.33393C11.7452 7.27328 11.8874 7.24211 12.0311 7.24219C12.1747 7.24211 12.317 7.27328 12.4498 7.33393C12.5825 7.39457 12.7031 7.48349 12.8047 7.59562C12.9063 7.70774 12.9868 7.84086 13.0418 7.98737C13.0967 8.13389 13.125 8.29091 13.1249 8.44948V88.1262C13.125 88.2848 13.0967 88.4418 13.0418 88.5883C12.9868 88.7348 12.9063 88.8679 12.8047 88.9801C12.7031 89.0922 12.5825 89.1811 12.4498 89.2418C12.317 89.3024 12.1747 89.3336 12.0311 89.3335Z" fill="#77C611"/>
<path id="Vector_5" d="M9.84588 16.9009H7.65826C7.05378 16.9009 6.56445 16.3611 6.56445 15.6936C6.56445 15.0261 7.05378 14.4863 7.65826 14.4863H9.84588C10.4504 14.4863 10.9397 15.0261 10.9397 15.6936C10.9397 16.3611 10.4504 16.9009 9.84588 16.9009ZM9.84588 24.1444H7.65826C7.05378 24.1444 6.56445 23.6043 6.56445 22.9371C6.56445 22.2699 7.05378 21.7298 7.65826 21.7298H9.84588C10.4504 21.7298 10.9397 22.2699 10.9397 22.9371C10.9397 23.6043 10.4504 24.1444 9.84588 24.1444ZM9.84588 31.3878H7.65826C7.05378 31.3878 6.56445 30.848 6.56445 30.1805C6.56445 29.513 7.05378 28.9732 7.65826 28.9732H9.84588C10.4504 28.9732 10.9397 29.513 10.9397 30.1805C10.9397 30.848 10.4504 31.3878 9.84588 31.3878ZM9.84588 38.6313H7.65826C7.05378 38.6313 6.56445 38.0912 6.56445 37.424C6.56445 36.7568 7.05378 36.2167 7.65826 36.2167H9.84588C10.4504 36.2167 10.9397 36.7568 10.9397 37.424C10.9397 38.0912 10.4504 38.6313 9.84588 38.6313Z" fill="#77C611"/>
<path id="Vector_6" d="M9.84588 45.8755H7.65826C7.05378 45.8755 6.56445 45.3357 6.56445 44.6682C6.56445 44.0007 7.05378 43.4609 7.65826 43.4609H9.84588C10.4504 43.4609 10.9397 44.0007 10.9397 44.6682C10.9397 45.3357 10.4504 45.8755 9.84588 45.8755Z" fill="#77C611"/>
<path id="Vector_7" d="M9.84588 53.1177H7.65826C7.5146 53.1178 7.37233 53.0866 7.2396 53.026C7.10686 52.9653 6.98625 52.8764 6.88466 52.7643C6.78308 52.6522 6.70251 52.519 6.64757 52.3725C6.59262 52.226 6.56438 52.069 6.56445 51.9104C6.56438 51.7518 6.59262 51.5948 6.64757 51.4483C6.70251 51.3018 6.78308 51.1687 6.88466 51.0566C6.98625 50.9444 7.10686 50.8555 7.2396 50.7949C7.37233 50.7342 7.5146 50.703 7.65826 50.7031H9.84588C9.98954 50.703 10.1318 50.7342 10.2646 50.7949C10.3973 50.8555 10.5179 50.9444 10.6195 51.0566C10.7211 51.1687 10.8016 51.3018 10.8566 51.4483C10.9115 51.5948 10.9398 51.7518 10.9397 51.9104C10.9397 52.069 10.9115 52.226 10.8565 52.3725C10.8015 52.519 10.721 52.6521 10.6194 52.7642C10.5178 52.8763 10.3972 52.9652 10.2645 53.0259C10.1318 53.0865 9.98953 53.1177 9.84588 53.1177Z" fill="#77C611"/>
<path id="Vector_8" d="M9.84588 60.3618H7.65826C7.5146 60.3619 7.37233 60.3308 7.2396 60.2701C7.10686 60.2095 6.98625 60.1205 6.88466 60.0084C6.78308 59.8963 6.70251 59.7632 6.64757 59.6167C6.59262 59.4702 6.56438 59.3131 6.56445 59.1546C6.56438 58.996 6.59262 58.839 6.64757 58.6925C6.70251 58.5459 6.78308 58.4128 6.88466 58.3007C6.98625 58.1886 7.10686 58.0996 7.2396 58.039C7.37233 57.9784 7.5146 57.9472 7.65826 57.9473H9.84588C9.98954 57.9472 10.1318 57.9784 10.2646 58.039C10.3973 58.0996 10.5179 58.1886 10.6195 58.3007C10.7211 58.4128 10.8016 58.5459 10.8566 58.6925C10.9115 58.839 10.9398 58.996 10.9397 59.1546C10.9398 59.3131 10.9115 59.4702 10.8566 59.6167C10.8016 59.7632 10.7211 59.8963 10.6195 60.0084C10.5179 60.1205 10.3973 60.2095 10.2646 60.2701C10.1318 60.3308 9.98954 60.3619 9.84588 60.3618Z" fill="#77C611"/>
<path id="Vector_9" d="M9.84588 67.604H7.65826C7.5146 67.6041 7.37233 67.5729 7.2396 67.5123C7.10686 67.4517 6.98625 67.3627 6.88466 67.2506C6.78308 67.1385 6.70251 67.0054 6.64757 66.8588C6.59262 66.7123 6.56438 66.5553 6.56445 66.3967C6.56438 66.2382 6.59262 66.0812 6.64757 65.9346C6.70251 65.7881 6.78308 65.655 6.88466 65.5429C6.98625 65.4308 7.10686 65.3418 7.2396 65.2812C7.37233 65.2205 7.5146 65.1894 7.65826 65.1895H9.84588C9.98954 65.1894 10.1318 65.2205 10.2646 65.2812C10.3973 65.3418 10.5179 65.4308 10.6195 65.5429C10.7211 65.655 10.8016 65.7881 10.8566 65.9346C10.9115 66.0812 10.9398 66.2382 10.9397 66.3967C10.9397 66.5553 10.9115 66.7123 10.8565 66.8588C10.8015 67.0053 10.721 67.1384 10.6194 67.2505C10.5178 67.3626 10.3972 67.4516 10.2645 67.5122C10.1318 67.5729 9.98953 67.6041 9.84588 67.604Z" fill="#77C611"/>
<path id="Vector_10" d="M9.84588 74.8479H7.65826C7.5146 74.848 7.37233 74.8168 7.2396 74.7561C7.10686 74.6955 6.98625 74.6066 6.88466 74.4944C6.78308 74.3823 6.70251 74.2492 6.64757 74.1027C6.59262 73.9562 6.56438 73.7991 6.56445 73.6406C6.56438 73.482 6.59263 73.325 6.64757 73.1785C6.70252 73.032 6.78309 72.8989 6.88468 72.7868C6.98627 72.6747 7.10688 72.5858 7.23962 72.5252C7.37235 72.4646 7.51461 72.4335 7.65826 72.4336H9.84588C9.98953 72.4335 10.1318 72.4646 10.2645 72.5252C10.3973 72.5858 10.5179 72.6747 10.6195 72.7868C10.7211 72.8989 10.8016 73.032 10.8566 73.1785C10.9115 73.325 10.9398 73.482 10.9397 73.6406C10.9398 73.7991 10.9115 73.9562 10.8566 74.1027C10.8016 74.2492 10.7211 74.3823 10.6195 74.4944C10.5179 74.6066 10.3973 74.6955 10.2646 74.7561C10.1318 74.8168 9.98954 74.848 9.84588 74.8479Z" fill="#77C611"/>
<path id="Vector_11" d="M9.84588 82.0904H7.65826C7.05378 82.0904 6.56445 81.5503 6.56445 80.8831C6.56445 80.2159 7.05378 79.6758 7.65826 79.6758H9.84588C10.4504 79.6758 10.9397 80.2159 10.9397 80.8831C10.9397 81.5503 10.4504 82.0904 9.84588 82.0904Z" fill="#77C611"/>
<path id="Vector_12" d="M27.3447 16.9009H18.5948C17.9903 16.9009 17.501 16.3611 17.501 15.6936C17.501 15.0261 17.99 14.4863 18.5948 14.4863H27.3447C27.9492 14.4863 28.4385 15.0261 28.4385 15.6936C28.4385 16.3611 27.9492 16.9009 27.3447 16.9009ZM66.7194 24.1444H36.0946C35.4902 24.1444 35.0008 23.6043 35.0008 22.9371C35.0008 22.2699 35.4899 21.7298 36.0946 21.7298H66.7194C67.3242 21.7298 67.8132 22.2699 67.8132 22.9371C67.8132 23.6043 67.3242 24.1444 66.7194 24.1444ZM31.7197 24.1444H20.7821C20.1777 24.1444 19.6883 23.6043 19.6883 22.9371C19.6883 22.2699 20.1777 21.7298 20.7821 21.7298H31.7197C32.3242 21.7298 32.8135 22.2699 32.8135 22.9371C32.8135 23.6043 32.3242 24.1444 31.7197 24.1444ZM92.9698 31.3878H64.5321C63.9276 31.3878 63.4383 30.848 63.4383 30.1805C63.4383 29.513 63.9276 28.9732 64.5321 28.9732H92.9695C93.5742 28.9732 94.063 29.513 94.063 30.1805C94.063 30.848 93.5745 31.3878 92.9698 31.3878ZM106.094 31.3878H97.3445C96.7402 31.3878 96.2509 30.848 96.2509 30.1805C96.2509 29.513 96.7402 28.9732 97.3445 28.9732H106.094C106.699 28.9732 107.188 29.513 107.188 30.1805C107.188 30.848 106.699 31.3878 106.094 31.3878ZM60.1571 31.3878H22.9698C22.3653 31.3878 21.8759 30.848 21.8759 30.1805C21.8759 29.513 22.365 28.9732 22.9698 28.9732H60.1571C60.7616 28.9732 61.2509 29.513 61.2509 30.1805C61.2509 30.848 60.7616 31.3878 60.1571 31.3878ZM29.5321 45.8744H22.9698C22.3653 45.8744 21.8759 45.3346 21.8759 44.6671C21.8759 43.9996 22.365 43.4598 22.9698 43.4598H29.5323C30.1368 43.4598 30.6261 43.9996 30.6261 44.6671C30.6261 45.3346 30.1365 45.8744 29.5321 45.8744ZM66.3778 45.8744H33.9073C33.3028 45.8744 32.8135 45.3346 32.8135 44.6671C32.8135 43.9996 33.3028 43.4598 33.9073 43.4598H66.3781C66.9825 43.4598 67.4719 43.9996 67.4719 44.6671C67.4719 45.3346 66.9823 45.8744 66.3778 45.8744ZM75.4696 38.6313H25.1571C24.5526 38.6313 24.0633 38.0912 24.0633 37.424C24.0633 36.7568 24.5526 36.2167 25.1571 36.2167H75.4696C76.0744 36.2167 76.5632 36.7568 76.5632 37.424C76.5632 38.0912 76.0744 38.6313 75.4696 38.6313ZM73.282 53.1179H53.5945C53.4509 53.1179 53.3086 53.0868 53.1758 53.0261C53.0431 52.9655 52.9225 52.8765 52.8209 52.7644C52.7193 52.6523 52.6388 52.5192 52.5838 52.3727C52.5289 52.2262 52.5006 52.0691 52.5007 51.9106C52.5006 51.752 52.5289 51.595 52.5838 51.4485C52.6388 51.3019 52.7193 51.1688 52.8209 51.0567C52.9225 50.9446 53.0431 50.8556 53.1758 50.795C53.3086 50.7344 53.4509 50.7032 53.5945 50.7033H73.282C73.8868 50.7033 74.3761 51.2434 74.3761 51.9106C74.3762 52.0691 74.3479 52.2262 74.2929 52.3727C74.238 52.5193 74.1574 52.6524 74.0558 52.7645C73.9542 52.8767 73.8335 52.9656 73.7008 53.0262C73.568 53.0868 73.4257 53.118 73.282 53.1179ZM57.9698 60.361H20.7821C20.6385 60.3611 20.4962 60.3299 20.3635 60.2693C20.2307 60.2086 20.1101 60.1197 20.0085 60.0076C19.9069 59.8954 19.8264 59.7623 19.7714 59.6158C19.7165 59.4693 19.6883 59.3123 19.6883 59.1537C19.6883 58.9951 19.7165 58.8381 19.7714 58.6916C19.8264 58.5451 19.9069 58.412 20.0085 58.2998C20.1101 58.1877 20.2307 58.0988 20.3635 58.0382C20.4962 57.9775 20.6385 57.9463 20.7821 57.9464H57.9695C58.1131 57.9463 58.2554 57.9775 58.3881 58.0382C58.5209 58.0988 58.6415 58.1877 58.7431 58.2998C58.8447 58.412 58.9252 58.5451 58.9802 58.6916C59.0351 58.8381 59.0634 58.9951 59.0633 59.1537C59.0634 59.3123 59.0352 59.4693 58.9803 59.6158C58.9254 59.7623 58.8448 59.8954 58.7433 60.0075C58.6417 60.1197 58.5211 60.2086 58.3884 60.2693C58.2557 60.3299 58.1134 60.3611 57.9698 60.361ZM38.2823 74.8479H20.7824C20.6387 74.848 20.4965 74.8168 20.3637 74.7562C20.231 74.6955 20.1104 74.6066 20.0088 74.4945C19.9072 74.3823 19.8267 74.2492 19.7717 74.1027C19.7168 73.9562 19.6885 73.7992 19.6886 73.6406C19.6885 73.482 19.7168 73.325 19.7717 73.1785C19.8267 73.0321 19.9072 72.8989 20.0088 72.7868C20.1104 72.6747 20.231 72.5858 20.3638 72.5252C20.4965 72.4646 20.6388 72.4335 20.7824 72.4336H38.2823C38.4259 72.4335 38.5682 72.4646 38.7009 72.5252C38.8337 72.5858 38.9543 72.6747 39.0559 72.7868C39.1574 72.8989 39.238 73.0321 39.293 73.1785C39.3479 73.325 39.3762 73.482 39.3761 73.6406C39.3762 73.7992 39.3479 73.9562 39.293 74.1027C39.238 74.2492 39.1575 74.3823 39.0559 74.4945C38.9543 74.6066 38.8337 74.6955 38.7009 74.7562C38.5682 74.8168 38.4259 74.848 38.2823 74.8479ZM82.0319 67.6044H51.4072C51.2635 67.6045 51.1212 67.5733 50.9885 67.5127C50.8558 67.4521 50.7352 67.3631 50.6336 67.251C50.532 67.1389 50.4514 67.0058 50.3965 66.8593C50.3415 66.7127 50.3133 66.5557 50.3134 66.3972C50.3133 66.2386 50.3415 66.0816 50.3965 65.935C50.4514 65.7885 50.532 65.6554 50.6336 65.5433C50.7352 65.4312 50.8558 65.3422 50.9885 65.2816C51.1212 65.221 51.2635 65.1898 51.4072 65.1899H82.0319C82.6367 65.1899 83.126 65.73 83.126 66.3972C83.1261 66.5557 83.0978 66.7128 83.0429 66.8593C82.9879 67.0059 82.9073 67.139 82.8057 67.2511C82.7041 67.3632 82.5835 67.4522 82.4507 67.5128C82.3179 67.5734 82.1756 67.6046 82.0319 67.6044ZM88.5945 67.6044H86.4074C85.8027 67.6044 85.3134 67.0643 85.3134 66.3972C85.3133 66.2386 85.3415 66.0815 85.3965 65.935C85.4515 65.7884 85.5321 65.6553 85.6337 65.5432C85.7353 65.4311 85.8559 65.3421 85.9887 65.2815C86.1215 65.2209 86.2638 65.1897 86.4074 65.1899H88.5945C89.1993 65.1899 89.6886 65.73 89.6886 66.3972C89.6886 67.0643 89.199 67.6044 88.5945 67.6044ZM47.0322 67.6044H22.9698C22.8261 67.6045 22.6838 67.5733 22.5511 67.5127C22.4183 67.4521 22.2977 67.3631 22.1962 67.251C22.0946 67.1389 22.014 67.0058 21.9591 66.8593C21.9041 66.7127 21.8759 66.5557 21.8759 66.3972C21.8759 66.2386 21.9041 66.0816 21.9591 65.935C22.014 65.7885 22.0946 65.6554 22.1962 65.5433C22.2977 65.4312 22.4183 65.3422 22.5511 65.2816C22.6838 65.221 22.8261 65.1898 22.9698 65.1899H47.0322C47.1759 65.1898 47.3181 65.221 47.4509 65.2816C47.5836 65.3422 47.7042 65.4312 47.8058 65.5433C47.9074 65.6554 47.988 65.7885 48.0429 65.935C48.0978 66.0816 48.1261 66.2386 48.126 66.3972C48.1261 66.5557 48.0978 66.7127 48.0429 66.8593C47.988 67.0058 47.9074 67.1389 47.8058 67.251C47.7042 67.3631 47.5836 67.4521 47.4509 67.5127C47.3181 67.5733 47.1759 67.6045 47.0322 67.6044ZM27.3447 82.0913H18.5948C17.9903 82.0913 17.501 81.5512 17.501 80.8841C17.501 80.2169 17.99 79.6768 18.5948 79.6768H27.3447C27.9492 79.6768 28.4385 80.2169 28.4385 80.8841C28.4385 81.5512 27.9492 82.0913 27.3447 82.0913ZM75.4696 60.361H62.3444C62.2008 60.3611 62.0585 60.3299 61.9258 60.2693C61.793 60.2086 61.6724 60.1197 61.5708 60.0076C61.4693 59.8954 61.3887 59.7623 61.3338 59.6158C61.2788 59.4693 61.2506 59.3123 61.2506 59.1537C61.2506 58.9951 61.2788 58.8381 61.3338 58.6916C61.3887 58.5451 61.4693 58.412 61.5708 58.2998C61.6724 58.1877 61.793 58.0988 61.9258 58.0382C62.0585 57.9775 62.2008 57.9463 62.3444 57.9464H75.4696C75.6133 57.9463 75.7555 57.9775 75.8882 58.0382C76.021 58.0988 76.1416 58.1877 76.2431 58.2999C76.3447 58.412 76.4252 58.5451 76.4801 58.6916C76.5351 58.8381 76.5633 58.9952 76.5632 59.1537C76.5633 59.3123 76.5351 59.4693 76.4802 59.6158C76.4253 59.7624 76.3448 59.8955 76.2432 60.0076C76.1416 60.1198 76.021 60.2087 75.8883 60.2693C75.7555 60.33 75.6133 60.3611 75.4696 60.361ZM92.9698 53.1179H77.6575C77.0528 53.1179 76.5634 52.5778 76.5634 51.9106C76.5634 51.752 76.5916 51.5949 76.6466 51.4484C76.7015 51.3019 76.7821 51.1687 76.8837 51.0566C76.9853 50.9445 77.106 50.8555 77.2388 50.7949C77.3715 50.7343 77.5138 50.7031 77.6575 50.7033H92.9698C93.1134 50.7032 93.2557 50.7344 93.3884 50.795C93.5211 50.8557 93.6417 50.9446 93.7433 51.0567C93.8448 51.1688 93.9254 51.302 93.9803 51.4485C94.0352 51.595 94.0634 51.752 94.0633 51.9106C94.0634 52.0691 94.0352 52.2261 93.9803 52.3726C93.9254 52.5192 93.8448 52.6523 93.7433 52.7644C93.6417 52.8765 93.5211 52.9655 93.3884 53.0261C93.2557 53.0868 93.1134 53.1179 92.9698 53.1179ZM49.2195 53.1179H22.9698C22.8261 53.1179 22.6838 53.0868 22.5511 53.0261C22.4183 52.9655 22.2977 52.8765 22.1962 52.7644C22.0946 52.6523 22.014 52.5192 21.9591 52.3727C21.9041 52.2262 21.8759 52.0691 21.8759 51.9106C21.8759 51.752 21.9041 51.595 21.9591 51.4485C22.014 51.3019 22.0946 51.1688 22.1962 51.0567C22.2977 50.9446 22.4183 50.8556 22.5511 50.795C22.6838 50.7344 22.8261 50.7032 22.9698 50.7033H49.2198C49.3635 50.7032 49.5058 50.7344 49.6385 50.795C49.7712 50.8556 49.8918 50.9446 49.9934 51.0567C50.095 51.1688 50.1756 51.3019 50.2305 51.4485C50.2855 51.595 50.3137 51.752 50.3136 51.9106C50.3137 52.0691 50.2854 52.2262 50.2304 52.3727C50.1754 52.5192 50.0949 52.6523 49.9932 52.7644C49.8916 52.8766 49.771 52.9655 49.6383 53.0261C49.5055 53.0868 49.3632 53.1179 49.2195 53.1179Z" fill="#77C611"/>
</g>
</svg>
