<svg width="141" height="140" viewBox="0 0 141 140" fill="none" xmlns="http://www.w3.org/2000/svg">
<path d="M139.318 96.5393H1.50592C1.36227 96.5394 1.22001 96.5083 1.08727 96.4477C0.954534 96.387 0.833923 96.2981 0.732335 96.186C0.630748 96.074 0.550177 95.9408 0.49523 95.7944C0.440283 95.6479 0.412038 95.4908 0.41211 95.3323C0.412038 95.1737 0.440281 95.0167 0.495224 94.8702C0.550168 94.7237 0.630735 94.5906 0.732319 94.4784C0.833903 94.3663 0.954512 94.2774 1.08725 94.2167C1.21999 94.1561 1.36226 94.1249 1.50592 94.125H139.318C139.462 94.1249 139.604 94.1561 139.737 94.2167C139.87 94.2774 139.99 94.3663 140.092 94.4784C140.193 94.5906 140.274 94.7237 140.329 94.8702C140.384 95.0167 140.412 95.1737 140.412 95.3323C140.412 95.4908 140.384 95.6478 140.329 95.7943C140.274 95.9408 140.193 96.0738 140.092 96.1859C139.99 96.298 139.87 96.3869 139.737 96.4476C139.604 96.5082 139.462 96.5394 139.318 96.5393ZM70.4118 108.607C67.9999 108.607 66.0369 106.442 66.0369 103.778C66.0369 101.114 67.9999 98.9493 70.4118 98.9493C72.8237 98.9493 74.7871 101.114 74.7871 103.778C74.7871 106.442 72.8237 108.607 70.4118 108.607ZM70.4118 101.364C69.207 101.364 68.2242 102.448 68.2242 103.778C68.2242 105.108 69.207 106.192 70.4118 106.192C71.6186 106.192 72.5995 105.108 72.5995 103.778C72.5995 102.448 71.6186 101.364 70.4118 101.364ZM51.8332 139.999C51.6693 139.999 51.5076 139.959 51.3598 139.881C51.212 139.803 51.0819 139.689 50.9792 139.548C50.8765 139.407 50.8038 139.243 50.7663 139.066C50.7289 138.89 50.7277 138.707 50.7629 138.531L55.1379 116.801C55.2703 116.152 55.8619 115.751 56.4431 115.883C56.7262 115.953 56.9726 116.144 57.1284 116.414C57.2843 116.684 57.3367 117.011 57.2744 117.324L52.8994 139.054C52.8454 139.322 52.7105 139.561 52.5167 139.733C52.3229 139.905 52.0818 139.999 51.8332 139.999ZM88.9927 139.999C88.7438 139.999 88.5023 139.906 88.3082 139.734C88.1141 139.562 87.9788 139.322 87.9248 139.054L83.5501 117.324C83.4876 117.011 83.5399 116.684 83.6957 116.414C83.8514 116.144 84.0978 115.953 84.3808 115.883C84.5211 115.849 84.6662 115.845 84.8077 115.872C84.9493 115.9 85.0845 115.958 85.2058 116.043C85.327 116.128 85.4318 116.239 85.5141 116.369C85.5965 116.499 85.6548 116.646 85.6858 116.801L90.061 138.531C90.0962 138.707 90.0951 138.89 90.0578 139.066C90.0205 139.242 89.948 139.406 89.8455 139.547C89.743 139.688 89.6131 139.802 89.4656 139.88C89.318 139.958 89.1564 139.999 88.9927 139.999Z" fill="url(#paint0_linear_1299_216)"/>
<path d="M92.2894 139.999H48.5392C48.3955 139.999 48.2532 139.968 48.1204 139.907C47.9877 139.847 47.8671 139.758 47.7655 139.646C47.6639 139.534 47.5833 139.4 47.5284 139.254C47.4735 139.107 47.4452 138.95 47.4453 138.792C47.4453 138.633 47.4735 138.476 47.5285 138.33C47.5834 138.183 47.664 138.05 47.7656 137.938C47.8672 137.826 47.9878 137.737 48.1205 137.676C48.2532 137.616 48.3955 137.585 48.5392 137.585H92.2894C92.433 137.585 92.5752 137.616 92.7079 137.676C92.8406 137.737 92.9612 137.826 93.0628 137.938C93.1643 138.05 93.2449 138.183 93.2998 138.33C93.3547 138.476 93.383 138.633 93.3829 138.792C93.383 138.95 93.3548 139.107 93.2999 139.254C93.245 139.4 93.1644 139.533 93.0629 139.646C92.9613 139.758 92.8407 139.847 92.708 139.907C92.5753 139.968 92.433 139.999 92.2894 139.999ZM132.758 89.3335H8.07037C7.92671 89.3336 7.78444 89.3024 7.6517 89.2418C7.51896 89.1811 7.39836 89.0922 7.29677 88.9801C7.19519 88.8679 7.11462 88.7348 7.05968 88.5883C7.00473 88.4418 6.97649 88.2848 6.97656 88.1262V8.44948C6.97649 8.29091 7.00473 8.13389 7.05968 7.98737C7.11462 7.84086 7.19519 7.70774 7.29677 7.59562C7.39836 7.48349 7.51896 7.39457 7.6517 7.33393C7.78444 7.27328 7.92671 7.24211 8.07037 7.24219H132.758C133.362 7.24219 133.852 7.78228 133.852 8.44948V88.1262C133.852 88.2848 133.824 88.4418 133.769 88.5884C133.714 88.7349 133.633 88.868 133.531 88.9802C133.43 89.0923 133.309 89.1812 133.176 89.2418C133.044 89.3025 132.901 89.3336 132.758 89.3335ZM9.16418 86.9189H131.664V9.65677H9.16418V86.9189Z" fill="url(#paint1_linear_1299_216)"/>
<path d="M132.755 113.479H8.06823C3.84698 113.479 0.412109 109.688 0.412109 105.029V8.45044C0.412109 3.79124 3.84726 0 8.06823 0H132.755C136.977 0 140.412 3.79154 140.412 8.45044V105.028C140.412 109.688 136.977 113.479 132.755 113.479ZM8.06823 2.41428C5.05403 2.41428 2.59946 5.12231 2.59946 8.45044V105.028C2.59946 108.357 5.05403 111.064 8.06823 111.064H132.755C135.772 111.064 138.224 108.357 138.224 105.028V8.45044C138.224 5.12231 135.772 2.41428 132.755 2.41428H8.06823Z" fill="url(#paint2_linear_1299_216)"/>
<path d="M132.755 118.269H8.06823C3.77669 118.269 0.41211 114.558 0.41211 109.819V104.99C0.412038 104.831 0.440281 104.674 0.495224 104.528C0.550168 104.381 0.630735 104.248 0.732319 104.136C0.833903 104.024 0.954512 103.935 1.08725 103.874C1.21999 103.814 1.36226 103.783 1.50592 103.783C1.64958 103.783 1.79185 103.814 1.92459 103.874C2.05733 103.935 2.17794 104.024 2.27952 104.136C2.3811 104.248 2.46167 104.381 2.51661 104.528C2.57156 104.674 2.5998 104.831 2.59973 104.99V109.819C2.59973 113.205 5.00316 115.855 8.0685 115.855H132.756C135.824 115.855 138.224 113.205 138.224 109.819V105.028C138.224 104.869 138.253 104.712 138.308 104.565C138.363 104.419 138.443 104.286 138.545 104.174C138.646 104.062 138.767 103.973 138.9 103.912C139.033 103.851 139.175 103.82 139.319 103.82C139.462 103.82 139.604 103.851 139.737 103.912C139.87 103.973 139.991 104.062 140.092 104.174C140.194 104.286 140.274 104.419 140.329 104.566C140.384 104.712 140.412 104.869 140.412 105.028V109.819C140.412 114.558 137.049 118.269 132.755 118.269ZM12.4432 89.3335C12.2995 89.3336 12.1573 89.3024 12.0245 89.2418C11.8918 89.1811 11.7712 89.0922 11.6696 88.9801C11.568 88.8679 11.4874 88.7348 11.4325 88.5883C11.3776 88.4418 11.3493 88.2848 11.3494 88.1262V8.44948C11.3493 8.29091 11.3776 8.13389 11.4325 7.98737C11.4874 7.84086 11.568 7.70774 11.6696 7.59562C11.7712 7.48349 11.8918 7.39457 12.0245 7.33393C12.1573 7.27328 12.2995 7.24211 12.4432 7.24219C12.5869 7.24211 12.7291 7.27328 12.8619 7.33393C12.9946 7.39457 13.1152 7.48349 13.2168 7.59562C13.3184 7.70774 13.3989 7.84086 13.4539 7.98737C13.5088 8.13389 13.5371 8.29091 13.537 8.44948V88.1262C13.5371 88.2848 13.5088 88.4418 13.4539 88.5883C13.3989 88.7348 13.3184 88.8679 13.2168 88.9801C13.1152 89.0922 12.9946 89.1811 12.8619 89.2418C12.7291 89.3024 12.5869 89.3336 12.4432 89.3335Z" fill="url(#paint3_linear_1299_216)"/>
<path d="M10.258 16.9009H8.07037C7.46589 16.9009 6.97656 16.3611 6.97656 15.6936C6.97656 15.0261 7.46589 14.4863 8.07037 14.4863H10.258C10.8625 14.4863 11.3518 15.0261 11.3518 15.6936C11.3518 16.3611 10.8625 16.9009 10.258 16.9009ZM10.258 24.1444H8.07037C7.46589 24.1444 6.97656 23.6043 6.97656 22.9371C6.97656 22.2699 7.46589 21.7298 8.07037 21.7298H10.258C10.8625 21.7298 11.3518 22.2699 11.3518 22.9371C11.3518 23.6043 10.8625 24.1444 10.258 24.1444ZM10.258 31.3878H8.07037C7.46589 31.3878 6.97656 30.848 6.97656 30.1805C6.97656 29.513 7.46589 28.9732 8.07037 28.9732H10.258C10.8625 28.9732 11.3518 29.513 11.3518 30.1805C11.3518 30.848 10.8625 31.3878 10.258 31.3878ZM10.258 38.6313H8.07037C7.46589 38.6313 6.97656 38.0912 6.97656 37.424C6.97656 36.7568 7.46589 36.2167 8.07037 36.2167H10.258C10.8625 36.2167 11.3518 36.7568 11.3518 37.424C11.3518 38.0912 10.8625 38.6313 10.258 38.6313Z" fill="url(#paint4_linear_1299_216)"/>
<path d="M10.258 45.8755H8.07037C7.46589 45.8755 6.97656 45.3357 6.97656 44.6682C6.97656 44.0007 7.46589 43.4609 8.07037 43.4609H10.258C10.8625 43.4609 11.3518 44.0007 11.3518 44.6682C11.3518 45.3357 10.8625 45.8755 10.258 45.8755Z" fill="url(#paint5_linear_1299_216)"/>
<path d="M10.258 53.1177H8.07037C7.92671 53.1178 7.78444 53.0866 7.6517 53.026C7.51896 52.9653 7.39836 52.8764 7.29677 52.7643C7.19519 52.6522 7.11462 52.519 7.05968 52.3725C7.00473 52.226 6.97649 52.069 6.97656 51.9104C6.97649 51.7518 7.00473 51.5948 7.05968 51.4483C7.11462 51.3018 7.19519 51.1687 7.29677 51.0566C7.39836 50.9444 7.51896 50.8555 7.6517 50.7949C7.78444 50.7342 7.92671 50.703 8.07037 50.7031H10.258C10.4017 50.703 10.5439 50.7342 10.6767 50.7949C10.8094 50.8555 10.93 50.9444 11.0316 51.0566C11.1332 51.1687 11.2137 51.3018 11.2687 51.4483C11.3236 51.5948 11.3519 51.7518 11.3518 51.9104C11.3518 52.069 11.3236 52.226 11.2686 52.3725C11.2137 52.519 11.1331 52.6521 11.0315 52.7642C10.9299 52.8763 10.8093 52.9652 10.6766 53.0259C10.5439 53.0865 10.4016 53.1177 10.258 53.1177Z" fill="url(#paint6_linear_1299_216)"/>
<path d="M10.258 60.3618H8.07037C7.92671 60.3619 7.78444 60.3308 7.6517 60.2701C7.51896 60.2095 7.39836 60.1205 7.29677 60.0084C7.19519 59.8963 7.11462 59.7632 7.05968 59.6167C7.00473 59.4702 6.97649 59.3131 6.97656 59.1546C6.97649 58.996 7.00473 58.839 7.05968 58.6925C7.11462 58.5459 7.19519 58.4128 7.29677 58.3007C7.39836 58.1886 7.51896 58.0996 7.6517 58.039C7.78444 57.9784 7.92671 57.9472 8.07037 57.9473H10.258C10.4017 57.9472 10.5439 57.9784 10.6767 58.039C10.8094 58.0996 10.93 58.1886 11.0316 58.3007C11.1332 58.4128 11.2137 58.5459 11.2687 58.6925C11.3236 58.839 11.3519 58.996 11.3518 59.1546C11.3519 59.3131 11.3236 59.4702 11.2687 59.6167C11.2137 59.7632 11.1332 59.8963 11.0316 60.0084C10.93 60.1205 10.8094 60.2095 10.6767 60.2701C10.5439 60.3308 10.4017 60.3619 10.258 60.3618Z" fill="url(#paint7_linear_1299_216)"/>
<path d="M10.258 67.604H8.07037C7.92671 67.6041 7.78444 67.5729 7.6517 67.5123C7.51896 67.4517 7.39836 67.3627 7.29677 67.2506C7.19519 67.1385 7.11462 67.0054 7.05968 66.8588C7.00473 66.7123 6.97649 66.5553 6.97656 66.3967C6.97649 66.2382 7.00473 66.0812 7.05968 65.9346C7.11462 65.7881 7.19519 65.655 7.29677 65.5429C7.39836 65.4308 7.51896 65.3418 7.6517 65.2812C7.78444 65.2205 7.92671 65.1894 8.07037 65.1895H10.258C10.4017 65.1894 10.5439 65.2205 10.6767 65.2812C10.8094 65.3418 10.93 65.4308 11.0316 65.5429C11.1332 65.655 11.2137 65.7881 11.2687 65.9346C11.3236 66.0812 11.3519 66.2382 11.3518 66.3967C11.3518 66.5553 11.3236 66.7123 11.2686 66.8588C11.2137 67.0053 11.1331 67.1384 11.0315 67.2505C10.9299 67.3626 10.8093 67.4516 10.6766 67.5122C10.5439 67.5729 10.4016 67.6041 10.258 67.604Z" fill="url(#paint8_linear_1299_216)"/>
<path d="M10.258 74.8479H8.07037C7.92671 74.848 7.78444 74.8168 7.6517 74.7561C7.51896 74.6955 7.39836 74.6066 7.29677 74.4944C7.19519 74.3823 7.11462 74.2492 7.05968 74.1027C7.00473 73.9562 6.97649 73.7991 6.97656 73.6406C6.97649 73.482 7.00474 73.325 7.05968 73.1785C7.11463 73.032 7.1952 72.8989 7.29679 72.7868C7.39838 72.6747 7.51899 72.5858 7.65173 72.5252C7.78446 72.4646 7.92672 72.4335 8.07037 72.4336H10.258C10.4016 72.4335 10.5439 72.4646 10.6766 72.5252C10.8094 72.5858 10.93 72.6747 11.0316 72.7868C11.1332 72.8989 11.2137 73.032 11.2687 73.1785C11.3236 73.325 11.3519 73.482 11.3518 73.6406C11.3519 73.7991 11.3236 73.9562 11.2687 74.1027C11.2137 74.2492 11.1332 74.3823 11.0316 74.4944C10.93 74.6066 10.8094 74.6955 10.6767 74.7561C10.5439 74.8168 10.4017 74.848 10.258 74.8479Z" fill="url(#paint9_linear_1299_216)"/>
<path d="M10.258 82.0904H8.07037C7.46589 82.0904 6.97656 81.5503 6.97656 80.8831C6.97656 80.2159 7.46589 79.6758 8.07037 79.6758H10.258C10.8625 79.6758 11.3518 80.2159 11.3518 80.8831C11.3518 81.5503 10.8625 82.0904 10.258 82.0904Z" fill="url(#paint10_linear_1299_216)"/>
<path d="M27.7568 16.9009H19.0069C18.4024 16.9009 17.9131 16.3611 17.9131 15.6936C17.9131 15.0261 18.4021 14.4863 19.0069 14.4863H27.7568C28.3613 14.4863 28.8506 15.0261 28.8506 15.6936C28.8506 16.3611 28.3613 16.9009 27.7568 16.9009ZM67.1315 24.1444H36.5068C35.9023 24.1444 35.413 23.6043 35.413 22.9371C35.413 22.2699 35.902 21.7298 36.5068 21.7298H67.1315C67.7363 21.7298 68.2253 22.2699 68.2253 22.9371C68.2253 23.6043 67.7363 24.1444 67.1315 24.1444ZM32.1318 24.1444H21.1942C20.5898 24.1444 20.1004 23.6043 20.1004 22.9371C20.1004 22.2699 20.5898 21.7298 21.1942 21.7298H32.1318C32.7363 21.7298 33.2256 22.2699 33.2256 22.9371C33.2256 23.6043 32.7363 24.1444 32.1318 24.1444ZM93.3819 31.3878H64.9442C64.3397 31.3878 63.8504 30.848 63.8504 30.1805C63.8504 29.513 64.3397 28.9732 64.9442 28.9732H93.3816C93.9864 28.9732 94.4751 29.513 94.4751 30.1805C94.4751 30.848 93.9866 31.3878 93.3819 31.3878ZM106.507 31.3878H97.7566C97.1524 31.3878 96.663 30.848 96.663 30.1805C96.663 29.513 97.1524 28.9732 97.7566 28.9732H106.507C107.111 28.9732 107.601 29.513 107.601 30.1805C107.601 30.848 107.111 31.3878 106.507 31.3878ZM60.5692 31.3878H23.3819C22.7774 31.3878 22.2881 30.848 22.2881 30.1805C22.2881 29.513 22.7771 28.9732 23.3819 28.9732H60.5692C61.1737 28.9732 61.663 29.513 61.663 30.1805C61.663 30.848 61.1737 31.3878 60.5692 31.3878ZM29.9442 45.8744H23.3819C22.7774 45.8744 22.2881 45.3346 22.2881 44.6671C22.2881 43.9996 22.7771 43.4598 23.3819 43.4598H29.9444C30.5489 43.4598 31.0383 43.9996 31.0383 44.6671C31.0383 45.3346 30.5487 45.8744 29.9442 45.8744ZM66.7899 45.8744H34.3194C33.7149 45.8744 33.2256 45.3346 33.2256 44.6671C33.2256 43.9996 33.7149 43.4598 34.3194 43.4598H66.7902C67.3947 43.4598 67.884 43.9996 67.884 44.6671C67.884 45.3346 67.3944 45.8744 66.7899 45.8744ZM75.8817 38.6313H25.5692C24.9647 38.6313 24.4754 38.0912 24.4754 37.424C24.4754 36.7568 24.9647 36.2167 25.5692 36.2167H75.8817C76.4865 36.2167 76.9753 36.7568 76.9753 37.424C76.9753 38.0912 76.4865 38.6313 75.8817 38.6313ZM73.6941 53.1179H54.0066C53.863 53.1179 53.7207 53.0868 53.588 53.0261C53.4552 52.9655 53.3346 52.8765 53.233 52.7644C53.1314 52.6523 53.0509 52.5192 52.9959 52.3727C52.941 52.2262 52.9127 52.0691 52.9128 51.9106C52.9127 51.752 52.941 51.595 52.9959 51.4485C53.0509 51.3019 53.1314 51.1688 53.233 51.0567C53.3346 50.9446 53.4552 50.8556 53.588 50.795C53.7207 50.7344 53.863 50.7032 54.0066 50.7033H73.6941C74.2989 50.7033 74.7882 51.2434 74.7882 51.9106C74.7883 52.0691 74.76 52.2262 74.7051 52.3727C74.6501 52.5193 74.5695 52.6524 74.4679 52.7645C74.3663 52.8767 74.2456 52.9656 74.1129 53.0262C73.9801 53.0868 73.8378 53.118 73.6941 53.1179ZM58.3819 60.361H21.1942C21.0506 60.3611 20.9083 60.3299 20.7756 60.2693C20.6428 60.2086 20.5222 60.1197 20.4206 60.0076C20.3191 59.8954 20.2385 59.7623 20.1835 59.6158C20.1286 59.4693 20.1004 59.3123 20.1004 59.1537C20.1004 58.9951 20.1286 58.8381 20.1835 58.6916C20.2385 58.5451 20.3191 58.412 20.4206 58.2998C20.5222 58.1877 20.6428 58.0988 20.7756 58.0382C20.9083 57.9775 21.0506 57.9463 21.1942 57.9464H58.3816C58.5253 57.9463 58.6675 57.9775 58.8003 58.0382C58.933 58.0988 59.0536 58.1877 59.1552 58.2998C59.2568 58.412 59.3373 58.5451 59.3923 58.6916C59.4472 58.8381 59.4755 58.9951 59.4754 59.1537C59.4755 59.3123 59.4473 59.4693 59.3924 59.6158C59.3375 59.7623 59.2569 59.8954 59.1554 60.0075C59.0538 60.1197 58.9332 60.2086 58.8005 60.2693C58.6678 60.3299 58.5255 60.3611 58.3819 60.361ZM38.6944 74.8479H21.1945C21.0509 74.848 20.9086 74.8168 20.7758 74.7562C20.6431 74.6955 20.5225 74.6066 20.4209 74.4945C20.3193 74.3823 20.2388 74.2492 20.1838 74.1027C20.1289 73.9562 20.1006 73.7992 20.1007 73.6406C20.1006 73.482 20.1289 73.325 20.1838 73.1785C20.2388 73.0321 20.3193 72.8989 20.4209 72.7868C20.5225 72.6747 20.6431 72.5858 20.7759 72.5252C20.9086 72.4646 21.0509 72.4335 21.1945 72.4336H38.6944C38.838 72.4335 38.9803 72.4646 39.113 72.5252C39.2458 72.5858 39.3664 72.6747 39.468 72.7868C39.5696 72.8989 39.6501 73.0321 39.7051 73.1785C39.76 73.325 39.7883 73.482 39.7882 73.6406C39.7883 73.7992 39.76 73.9562 39.7051 74.1027C39.6501 74.2492 39.5696 74.3823 39.468 74.4945C39.3664 74.6066 39.2458 74.6955 39.1131 74.7562C38.9803 74.8168 38.838 74.848 38.6944 74.8479ZM82.444 67.6044H51.8193C51.6756 67.6045 51.5334 67.5733 51.4006 67.5127C51.2679 67.4521 51.1473 67.3631 51.0457 67.251C50.9441 67.1389 50.8635 67.0058 50.8086 66.8593C50.7536 66.7127 50.7254 66.5557 50.7255 66.3972C50.7254 66.2386 50.7536 66.0816 50.8086 65.9351C50.8635 65.7885 50.9441 65.6554 51.0457 65.5433C51.1473 65.4312 51.2679 65.3422 51.4006 65.2816C51.5334 65.221 51.6756 65.1898 51.8193 65.1899H82.444C83.0488 65.1899 83.5381 65.73 83.5381 66.3972C83.5382 66.5557 83.5099 66.7128 83.455 66.8593C83.4 67.0059 83.3194 67.139 83.2178 67.2511C83.1162 67.3632 82.9956 67.4522 82.8628 67.5128C82.73 67.5734 82.5877 67.6046 82.444 67.6044ZM89.0066 67.6044H86.8196C86.2148 67.6044 85.7255 67.0643 85.7255 66.3972C85.7254 66.2386 85.7537 66.0815 85.8086 65.935C85.8636 65.7884 85.9442 65.6553 86.0458 65.5432C86.1474 65.4311 86.268 65.3421 86.4008 65.2815C86.5336 65.2209 86.6759 65.1897 86.8196 65.1899H89.0066C89.6114 65.1899 90.1007 65.73 90.1007 66.3972C90.1007 67.0643 89.6111 67.6044 89.0066 67.6044ZM47.4443 67.6044H23.3819C23.2382 67.6045 23.0959 67.5733 22.9632 67.5127C22.8305 67.4521 22.7098 67.3631 22.6083 67.251C22.5067 67.1389 22.4261 67.0058 22.3712 66.8593C22.3162 66.7127 22.288 66.5557 22.2881 66.3972C22.288 66.2386 22.3162 66.0816 22.3712 65.9351C22.4261 65.7885 22.5067 65.6554 22.6083 65.5433C22.7098 65.4312 22.8305 65.3422 22.9632 65.2816C23.0959 65.221 23.2382 65.1898 23.3819 65.1899H47.4443C47.588 65.1898 47.7302 65.221 47.863 65.2816C47.9957 65.3422 48.1163 65.4312 48.2179 65.5433C48.3195 65.6554 48.4001 65.7885 48.455 65.9351C48.51 66.0816 48.5382 66.2386 48.5381 66.3972C48.5382 66.5557 48.51 66.7127 48.455 66.8593C48.4001 67.0058 48.3195 67.1389 48.2179 67.251C48.1163 67.3631 47.9957 67.4521 47.863 67.5127C47.7302 67.5733 47.588 67.6045 47.4443 67.6044ZM27.7568 82.0913H19.0069C18.4024 82.0913 17.9131 81.5512 17.9131 80.884C17.9131 80.2169 18.4021 79.6768 19.0069 79.6768H27.7568C28.3613 79.6768 28.8506 80.2169 28.8506 80.884C28.8506 81.5512 28.3613 82.0913 27.7568 82.0913ZM75.8817 60.361H62.7566C62.6129 60.3611 62.4706 60.3299 62.3379 60.2693C62.2051 60.2086 62.0845 60.1197 61.983 60.0076C61.8814 59.8954 61.8008 59.7623 61.7459 59.6158C61.6909 59.4693 61.6627 59.3123 61.6628 59.1537C61.6627 58.9951 61.6909 58.8381 61.7459 58.6916C61.8008 58.5451 61.8814 58.412 61.983 58.2998C62.0845 58.1877 62.2051 58.0988 62.3379 58.0382C62.4706 57.9775 62.6129 57.9463 62.7566 57.9464H75.8817C76.0254 57.9463 76.1676 57.9775 76.3004 58.0382C76.4331 58.0988 76.5537 58.1877 76.6552 58.2999C76.7568 58.412 76.8373 58.5451 76.8923 58.6916C76.9472 58.8381 76.9754 58.9952 76.9753 59.1537C76.9754 59.3123 76.9472 59.4693 76.8923 59.6158C76.8374 59.7624 76.7569 59.8955 76.6553 60.0076C76.5537 60.1198 76.4331 60.2087 76.3004 60.2693C76.1677 60.33 76.0254 60.3611 75.8817 60.361ZM93.3819 53.1179H78.0696C77.4649 53.1179 76.9755 52.5778 76.9755 51.9106C76.9755 51.752 77.0037 51.5949 77.0587 51.4484C77.1136 51.3019 77.1942 51.1687 77.2958 51.0566C77.3975 50.9445 77.5181 50.8555 77.6509 50.7949C77.7836 50.7343 77.9259 50.7031 78.0696 50.7033H93.3819C93.5255 50.7032 93.6678 50.7344 93.8005 50.795C93.9332 50.8557 94.0538 50.9446 94.1554 51.0567C94.2569 51.1688 94.3375 51.302 94.3924 51.4485C94.4473 51.595 94.4755 51.752 94.4754 51.9106C94.4755 52.0691 94.4473 52.2261 94.3924 52.3726C94.3375 52.5191 94.2569 52.6523 94.1554 52.7644C94.0538 52.8765 93.9332 52.9655 93.8005 53.0261C93.6678 53.0868 93.5255 53.1179 93.3819 53.1179ZM49.6317 53.1179H23.3819C23.2382 53.1179 23.0959 53.0868 22.9632 53.0261C22.8305 52.9655 22.7098 52.8765 22.6083 52.7644C22.5067 52.6523 22.4261 52.5192 22.3712 52.3727C22.3162 52.2262 22.288 52.0691 22.2881 51.9106C22.288 51.752 22.3162 51.595 22.3712 51.4485C22.4261 51.3019 22.5067 51.1688 22.6083 51.0567C22.7098 50.9446 22.8305 50.8556 22.9632 50.795C23.0959 50.7344 23.2382 50.7032 23.3819 50.7033H49.6319C49.7756 50.7032 49.9179 50.7344 50.0506 50.795C50.1833 50.8556 50.304 50.9446 50.4055 51.0567C50.5071 51.1688 50.5877 51.3019 50.6426 51.4485C50.6976 51.595 50.7258 51.752 50.7257 51.9106C50.7258 52.0691 50.6975 52.2262 50.6425 52.3727C50.5876 52.5192 50.507 52.6523 50.4054 52.7644C50.3037 52.8766 50.1831 52.9655 50.0504 53.0261C49.9176 53.0868 49.7753 53.1179 49.6317 53.1179Z" fill="url(#paint11_linear_1299_216)"/>
<defs>
<linearGradient id="paint0_linear_1299_216" x1="70.412" y1="94.125" x2="70.412" y2="139.999" gradientUnits="userSpaceOnUse">
<stop stop-color="white"/>
<stop offset="1" stop-color="#3D3D3D"/>
</linearGradient>
<linearGradient id="paint1_linear_1299_216" x1="70.4141" y1="7.24219" x2="70.4141" y2="139.999" gradientUnits="userSpaceOnUse">
<stop stop-color="white"/>
<stop offset="1" stop-color="#3D3D3D"/>
</linearGradient>
<linearGradient id="paint2_linear_1299_216" x1="70.412" y1="0" x2="70.412" y2="113.479" gradientUnits="userSpaceOnUse">
<stop stop-color="white"/>
<stop offset="1" stop-color="#3D3D3D"/>
</linearGradient>
<linearGradient id="paint3_linear_1299_216" x1="70.4121" y1="7.24219" x2="70.4121" y2="118.269" gradientUnits="userSpaceOnUse">
<stop stop-color="white"/>
<stop offset="1" stop-color="#3D3D3D"/>
</linearGradient>
<linearGradient id="paint4_linear_1299_216" x1="9.16418" y1="14.4863" x2="9.16418" y2="38.6313" gradientUnits="userSpaceOnUse">
<stop stop-color="white"/>
<stop offset="1" stop-color="#3D3D3D"/>
</linearGradient>
<linearGradient id="paint5_linear_1299_216" x1="9.16418" y1="43.4609" x2="9.16418" y2="45.8755" gradientUnits="userSpaceOnUse">
<stop stop-color="white"/>
<stop offset="1" stop-color="#3D3D3D"/>
</linearGradient>
<linearGradient id="paint6_linear_1299_216" x1="9.16418" y1="50.7031" x2="9.16418" y2="53.1177" gradientUnits="userSpaceOnUse">
<stop stop-color="white"/>
<stop offset="1" stop-color="#3D3D3D"/>
</linearGradient>
<linearGradient id="paint7_linear_1299_216" x1="9.16418" y1="57.9473" x2="9.16418" y2="60.3618" gradientUnits="userSpaceOnUse">
<stop stop-color="white"/>
<stop offset="1" stop-color="#3D3D3D"/>
</linearGradient>
<linearGradient id="paint8_linear_1299_216" x1="9.16418" y1="65.1895" x2="9.16418" y2="67.604" gradientUnits="userSpaceOnUse">
<stop stop-color="white"/>
<stop offset="1" stop-color="#3D3D3D"/>
</linearGradient>
<linearGradient id="paint9_linear_1299_216" x1="9.16418" y1="72.4336" x2="9.16418" y2="74.8479" gradientUnits="userSpaceOnUse">
<stop stop-color="white"/>
<stop offset="1" stop-color="#3D3D3D"/>
</linearGradient>
<linearGradient id="paint10_linear_1299_216" x1="9.16418" y1="79.6758" x2="9.16418" y2="82.0904" gradientUnits="userSpaceOnUse">
<stop stop-color="white"/>
<stop offset="1" stop-color="#3D3D3D"/>
</linearGradient>
<linearGradient id="paint11_linear_1299_216" x1="62.7568" y1="14.4863" x2="62.7568" y2="82.0913" gradientUnits="userSpaceOnUse">
<stop stop-color="white"/>
<stop offset="1" stop-color="#3D3D3D"/>
</linearGradient>
</defs>
</svg>
