<svg width="139" height="138" viewBox="0 0 139 138" fill="none" xmlns="http://www.w3.org/2000/svg">
<g filter="url(#filter0_d_1299_234)">
<path d="M126.601 0H12.2243C7.91581 0 4.41211 3.85786 4.41211 8.59982V121.401C4.41211 126.143 7.91581 130 12.2243 130H126.601C130.908 130 134.412 126.143 134.412 121.401V8.59982C134.413 3.85823 130.908 0 126.601 0ZM103.046 14.4408C103.046 12.6872 104.338 11.2653 105.93 11.2653H108.815C110.409 11.2653 111.699 12.6868 111.699 14.4408V18.0396C111.699 19.7932 110.408 21.2148 108.815 21.2148H105.93C104.338 21.2148 103.046 19.7932 103.046 18.0396V14.4408ZM89.6323 14.4408C89.6323 12.6872 90.9244 11.2653 92.5172 11.2653H95.4013C96.9941 11.2653 98.2862 12.6868 98.2862 14.4408V18.0396C98.2862 19.7932 96.9941 21.2148 95.4013 21.2148H92.5172C90.9244 21.2148 89.6323 19.7932 89.6323 18.0396V14.4408ZM125.037 119.68H13.7869V30.7534H125.037V119.68ZM125.113 18.0396C125.113 19.7932 123.822 21.2148 122.229 21.2148H119.344C117.75 21.2148 116.46 19.7932 116.46 18.0396V14.4408C116.46 12.6872 117.751 11.2653 119.344 11.2653H122.229C123.822 11.2653 125.113 12.6868 125.113 14.4408V18.0396Z" fill="url(#paint0_linear_1299_234)"/>
<path d="M32.3183 78.5702L53.2291 89.2743C53.7698 89.5498 54.3452 89.6895 54.9402 89.6895C55.7152 89.6895 56.4706 89.4472 57.1273 88.9875C58.303 88.1603 59.0054 86.7508 59.0054 85.2168V85.0993C59.0054 83.3654 58.0823 81.7731 56.6533 81.0426L43.5749 74.3537L56.6533 67.664C58.0823 66.9328 59.0054 65.3408 59.0054 63.6076V63.4912C59.0054 61.9551 58.303 60.5449 57.1273 59.7206C56.4773 59.2634 55.7198 59.0215 54.9379 59.0215C54.3482 59.0215 53.7568 59.1642 53.2275 59.4349L32.3179 70.1379C30.8903 70.8691 29.9678 72.4618 29.9678 74.1942V74.5142C29.9674 76.2441 30.8893 77.8361 32.3183 78.5702Z" fill="url(#paint1_linear_1299_234)"/>
<path d="M59.1909 100.373C59.9537 101.522 61.1805 102.208 62.4726 102.208H62.5773C64.3514 102.208 65.9057 100.958 66.4463 99.1006L80.2208 52.1184C80.6159 50.7626 80.3968 49.2658 79.6337 48.1146C78.871 46.9653 77.6442 46.2793 76.3518 46.2793H76.2474C74.4727 46.2793 72.9167 47.529 72.3761 49.3866L58.6002 96.3724C58.2081 97.7301 58.4289 99.2246 59.1909 100.373Z" fill="url(#paint2_linear_1299_234)"/>
<path d="M79.8203 63.6073C79.8203 65.3386 80.7428 66.931 82.1721 67.6658L95.2505 74.3537L82.1721 81.0419C80.7435 81.7731 79.8203 83.3654 79.8203 85.0986V85.2161C79.8203 86.7504 80.522 88.16 81.6991 88.9875C82.3535 89.4465 83.1092 89.6895 83.8852 89.6895C84.4795 89.6895 85.0547 89.5498 85.5989 89.2728L106.508 78.5691C107.936 77.8361 108.859 76.2441 108.859 74.5135V74.1935C108.859 72.4611 107.936 70.8684 106.507 70.1371L85.5976 59.4342C85.0702 59.1642 84.4795 59.0215 83.8898 59.0215C83.1092 59.0215 82.3508 59.2627 81.7008 59.7191C80.5237 60.5449 79.8213 61.9547 79.8213 63.4909V63.6069H79.8203V63.6073Z" fill="url(#paint3_linear_1299_234)"/>
</g>
<defs>
<filter id="filter0_d_1299_234" x="0.412109" y="0" width="138" height="138" filterUnits="userSpaceOnUse" color-interpolation-filters="sRGB">
<feFlood flood-opacity="0" result="BackgroundImageFix"/>
<feColorMatrix in="SourceAlpha" type="matrix" values="0 0 0 0 0 0 0 0 0 0 0 0 0 0 0 0 0 0 127 0" result="hardAlpha"/>
<feOffset dy="4"/>
<feGaussianBlur stdDeviation="2"/>
<feComposite in2="hardAlpha" operator="out"/>
<feColorMatrix type="matrix" values="0 0 0 0 0.929412 0 0 0 0 1 0 0 0 0 0.811765 0 0 0 0.25 0"/>
<feBlend mode="normal" in2="BackgroundImageFix" result="effect1_dropShadow_1299_234"/>
<feBlend mode="normal" in="SourceGraphic" in2="effect1_dropShadow_1299_234" result="shape"/>
</filter>
<linearGradient id="paint0_linear_1299_234" x1="69.4121" y1="0" x2="69.4121" y2="130" gradientUnits="userSpaceOnUse">
<stop stop-color="white"/>
<stop offset="1" stop-color="#3D3D3D"/>
</linearGradient>
<linearGradient id="paint1_linear_1299_234" x1="44.4866" y1="59.0215" x2="44.4866" y2="89.6895" gradientUnits="userSpaceOnUse">
<stop stop-color="white"/>
<stop offset="1" stop-color="#3D3D3D"/>
</linearGradient>
<linearGradient id="paint2_linear_1299_234" x1="69.4117" y1="46.2793" x2="69.4117" y2="102.208" gradientUnits="userSpaceOnUse">
<stop stop-color="white"/>
<stop offset="1" stop-color="#3D3D3D"/>
</linearGradient>
<linearGradient id="paint3_linear_1299_234" x1="94.3395" y1="59.0215" x2="94.3395" y2="89.6895" gradientUnits="userSpaceOnUse">
<stop stop-color="white"/>
<stop offset="1" stop-color="#3D3D3D"/>
</linearGradient>
</defs>
</svg>
