<svg width="131" height="130" viewBox="0 0 131 130" fill="none" xmlns="http://www.w3.org/2000/svg">
<g id="Group">
<g id="Group_2">
<g id="Group_3">
<path id="Vector" d="M121.037 120.18H121.537V119.68V30.7534V30.2534H121.037H9.78692H9.28692V30.7534V119.68V120.18H9.78692H121.037ZM8.22434 0.5H122.601C126.588 0.5 129.913 4.08809 129.912 8.59972V121.401C129.912 125.913 126.588 129.5 122.601 129.5H8.22434C4.23607 129.5 0.912109 125.913 0.912109 121.401V8.59982C0.912109 4.08769 4.2361 0.5 8.22434 0.5ZM101.93 10.7653C100.017 10.7653 98.5462 12.4574 98.5462 14.4408V18.0396C98.5462 20.023 100.017 21.7148 101.93 21.7148H104.815C106.728 21.7148 108.199 20.023 108.199 18.0396V14.4408C108.199 12.4571 106.729 10.7653 104.815 10.7653H101.93ZM88.5172 10.7653C86.6042 10.7653 85.1323 12.4573 85.1323 14.4408V18.0396C85.1323 20.0232 86.6043 21.7148 88.5172 21.7148H91.4013C93.3142 21.7148 94.7862 20.0232 94.7862 18.0396V14.4408C94.7862 12.4569 93.3142 10.7653 91.4013 10.7653H88.5172ZM118.229 21.7148C120.142 21.7148 121.613 20.023 121.613 18.0396V14.4408C121.613 12.4571 120.142 10.7653 118.229 10.7653H115.344C113.431 10.7653 111.96 12.4574 111.96 14.4408V18.0396C111.96 20.023 113.43 21.7148 115.344 21.7148H118.229Z" fill="#77C611" stroke="black"/>
<path id="Vector_2" d="M52.4256 81.4878L52.4257 81.4878C53.6713 82.1246 54.5054 83.5344 54.5054 85.0993V85.2168C54.5054 86.6006 53.8723 87.8518 52.84 88.5783C52.2645 88.981 51.6088 89.1895 50.9402 89.1895C50.426 89.1895 49.9283 89.0693 49.4566 88.829C49.4565 88.829 49.4563 88.8289 49.4561 88.8288L28.5468 78.1255C27.3001 77.485 26.4675 76.075 26.4678 74.5143V74.5142V74.1942C26.4678 72.6306 27.3013 71.2203 28.5459 70.5829L49.4551 59.8801C49.9144 59.6452 50.4278 59.5215 50.9379 59.5215C51.615 59.5215 52.2723 59.7306 52.8396 60.1296L52.8403 60.13C53.8719 60.8532 54.5054 62.1047 54.5054 63.4912V63.6076C54.5054 65.1717 53.6714 66.5813 52.4256 67.2189C52.4255 67.2189 52.4255 67.2189 52.4255 67.2189L39.3472 73.9085L38.4769 74.3537L39.3472 74.7988L52.4256 81.4878Z" fill="#77C611" stroke="black"/>
<path id="Vector_3" d="M61.9665 98.9599L61.9662 98.9608C61.4798 100.632 60.1021 101.708 58.5773 101.708H58.4726C57.3611 101.708 56.2851 101.117 55.6075 100.096C54.9292 99.0742 54.7281 97.7325 55.0803 96.512C55.0804 96.5117 55.0805 96.5114 55.0806 96.5111L68.8559 49.5273L68.8561 49.5263C69.3424 47.8555 70.7216 46.7793 72.2474 46.7793H72.3518C73.4636 46.7793 74.5395 47.3701 75.217 48.3909C75.8966 49.4162 76.0958 50.7601 75.7407 51.9786L61.9665 98.9599Z" fill="#77C611" stroke="black"/>
<path id="Vector_4" d="M92.3487 74.3537L91.4782 74.7988L78.3999 81.487C77.1544 82.1245 76.3203 83.5344 76.3203 85.0986V85.2161C76.3203 86.6005 76.953 87.8517 77.9867 88.5785C78.5597 88.9803 79.2156 89.1895 79.8852 89.1895C80.3984 89.1895 80.8958 89.0695 81.3716 88.8275C81.3718 88.8274 81.372 88.8273 81.3722 88.8272L102.28 78.1243L92.3487 74.3537ZM92.3487 74.3537L91.4782 73.9085M92.3487 74.3537L91.4782 73.9085M91.4782 73.9085L78.4008 67.2212C78.4006 67.2211 78.4005 67.221 78.4004 67.221C77.1783 66.5925 76.3537 65.2252 76.3213 63.7006V63.6069V63.4909C76.3213 62.1045 76.9547 60.8533 77.9879 60.1285L77.9881 60.1283C78.5553 59.7301 79.2136 59.5215 79.8898 59.5215C80.4 59.5215 80.9126 59.6452 81.3697 59.8792L81.3698 59.8792L102.279 70.5822L102.279 70.5823M91.4782 73.9085L102.279 70.5823M102.279 70.5823C103.525 71.2197 104.359 72.6299 104.359 74.1935V74.5135C104.359 76.0748 103.526 77.4846 102.281 78.124L102.279 70.5823Z" fill="#77C611" stroke="black"/>
</g>
</g>
</g>
</svg>
