<svg width="140" height="141" viewBox="0 0 140 141" fill="none" xmlns="http://www.w3.org/2000/svg">
<g id="gavel_svgrepo.com" clip-path="url(#clip0_469_175)" filter="url(#filter0_d_469_175)">
<path id="Vector" d="M92.1669 41.4834C91.6551 41.4864 91.1477 41.3883 90.6739 41.1948C90.2001 41.0012 89.7692 40.7161 89.4058 40.3557L60.5113 11.4612C59.7842 10.7186 59.3819 9.71756 59.3928 8.6783C59.4037 7.63904 59.8271 6.64668 60.5697 5.91955C61.3123 5.19241 62.3133 4.79006 63.3526 4.801C64.3919 4.81194 65.3842 5.23528 66.1113 5.97788L95.0447 34.8723C95.5798 35.4183 95.9422 36.1098 96.0865 36.8605C96.2308 37.6113 96.1506 38.3879 95.856 39.0933C95.5614 39.7987 95.0654 40.4017 94.43 40.8268C93.7946 41.2519 93.048 41.4803 92.2836 41.4834H92.1669Z" fill="#7CCB12"/>
<path id="Vector_2" d="M46.1222 87.5278C46.1252 87.016 46.0271 86.5086 45.8335 86.0348C45.64 85.561 45.3549 85.13 44.9944 84.7667L16.1 55.8722C15.3677 55.1399 14.3745 54.7285 13.3389 54.7285C12.3033 54.7285 11.3101 55.1399 10.5778 55.8722C9.84548 56.6045 9.43408 57.5977 9.43408 58.6333C9.43408 59.6689 9.84548 60.6621 10.5778 61.3944L39.4722 90.4444C39.8337 90.8089 40.2639 91.0982 40.7378 91.2957C41.2117 91.4931 41.7199 91.5948 42.2333 91.5948C42.7467 91.5948 43.255 91.4931 43.7289 91.2957C44.2028 91.0982 44.6329 90.8089 44.9944 90.4444C45.374 90.0628 45.6703 89.6065 45.8644 89.1044C46.0585 88.6024 46.1463 88.0655 46.1222 87.5278Z" fill="#7CCB12"/>
<path id="Vector_3" d="M85.2836 133.223H11.6669C11.0545 133.246 10.4454 133.123 9.88916 132.866C9.33296 132.609 8.84542 132.224 8.4663 131.742C8.08719 131.261 7.82722 130.697 7.70761 130.096C7.588 129.495 7.61212 128.874 7.77801 128.284L12.1725 112.728C12.4077 111.887 12.9192 111.15 13.6247 110.635C14.3302 110.12 15.1885 109.857 16.0613 109.889H80.8891C81.762 109.857 82.6203 110.12 83.3257 110.635C84.0312 111.15 84.5428 111.887 84.778 112.728L89.1725 128.284C89.3298 128.861 89.3519 129.466 89.2373 130.053C89.1226 130.64 88.8742 131.192 88.5113 131.667C88.1375 132.166 87.649 132.568 87.0873 132.839C86.5255 133.11 85.9069 133.241 85.2836 133.223ZM16.7613 125.445H80.1113L77.778 117.667H18.9391L16.7613 125.445Z" fill="#7CCB12"/>
<path id="Vector_4" d="M128.761 107.711L74.3169 53.2661L83.4946 44.0883L56.4669 17.0605L21.7002 51.8272L48.6502 78.7772L57.7891 69.6772L112.234 124.122C114.421 126.306 117.386 127.534 120.478 127.534C123.57 127.534 126.535 126.306 128.722 124.122C130.889 121.943 132.108 118.997 132.115 115.924C132.122 112.851 130.917 109.9 128.761 107.711ZM32.6669 51.8272L56.4669 28.2217L72.4502 44.205L48.6502 67.9661L32.6669 51.8272ZM123.239 118.716C122.51 119.44 121.525 119.847 120.497 119.847C119.47 119.847 118.484 119.44 117.756 118.716L63.3113 64.2717L68.7946 58.7883L123.239 113.233C123.963 113.961 124.37 114.947 124.37 115.974C124.37 117.002 123.963 117.987 123.239 118.716Z" fill="#7CCB12"/>
</g>
<defs>
<filter id="filter0_d_469_175" x="-4" y="-3" width="148" height="148" filterUnits="userSpaceOnUse" color-interpolation-filters="sRGB">
<feFlood flood-opacity="0" result="BackgroundImageFix"/>
<feColorMatrix in="SourceAlpha" type="matrix" values="0 0 0 0 0 0 0 0 0 0 0 0 0 0 0 0 0 0 127 0" result="hardAlpha"/>
<feOffset/>
<feGaussianBlur stdDeviation="2"/>
<feComposite in2="hardAlpha" operator="out"/>
<feColorMatrix type="matrix" values="0 0 0 0 0.486275 0 0 0 0 0.796078 0 0 0 0 0.0705882 0 0 0 1 0"/>
<feBlend mode="normal" in2="BackgroundImageFix" result="effect1_dropShadow_469_175"/>
<feBlend mode="normal" in="SourceGraphic" in2="effect1_dropShadow_469_175" result="shape"/>
</filter>
<clipPath id="clip0_469_175">
<rect width="140" height="140" fill="white" transform="translate(0 1)"/>
</clipPath>
</defs>
</svg>
