<svg width="141" height="141" viewBox="0 0 141 141" fill="none" xmlns="http://www.w3.org/2000/svg">
<g clip-path="url(#clip0_1299_162)" filter="url(#filter0_d_1299_162)">
<path d="M92.579 41.4834C92.0672 41.4864 91.5599 41.3883 91.086 41.1948C90.6122 41.0012 90.1813 40.7161 89.8179 40.3557L60.9235 11.4612C60.1963 10.7186 59.794 9.71756 59.8049 8.6783C59.8158 7.63904 60.2392 6.64668 60.9818 5.91955C61.7244 5.19241 62.7254 4.79006 63.7647 4.801C64.804 4.81194 65.7963 5.23528 66.5235 5.97788L95.4568 34.8723C95.9919 35.4183 96.3543 36.1098 96.4986 36.8605C96.6429 37.6113 96.5627 38.3879 96.2681 39.0933C95.9735 39.7987 95.4775 40.4017 94.8421 40.8268C94.2067 41.2519 93.4601 41.4803 92.6957 41.4834H92.579Z" fill="url(#paint0_linear_1299_162)"/>
<path d="M46.5343 87.5278C46.5373 87.016 46.4392 86.5086 46.2457 86.0348C46.0521 85.561 45.767 85.13 45.4065 84.7667L16.5121 55.8722C15.7798 55.1399 14.7866 54.7285 13.751 54.7285C12.7154 54.7285 11.7222 55.1399 10.9899 55.8722C10.2576 56.6045 9.84619 57.5977 9.84619 58.6333C9.84619 59.6689 10.2576 60.6621 10.9899 61.3944L39.8843 90.4444C40.2458 90.8089 40.676 91.0982 41.1499 91.2957C41.6238 91.4931 42.1321 91.5948 42.6454 91.5948C43.1588 91.5948 43.6671 91.4931 44.141 91.2957C44.6149 91.0982 45.045 90.8089 45.4065 90.4444C45.7861 90.0628 46.0824 89.6065 46.2765 89.1044C46.4706 88.6024 46.5584 88.0655 46.5343 87.5278Z" fill="url(#paint1_linear_1299_162)"/>
<path d="M85.6957 133.223H12.079C11.4666 133.246 10.8575 133.123 10.3013 132.866C9.74506 132.609 9.25753 132.224 8.87841 131.742C8.4993 131.261 8.23933 130.697 8.11972 130.096C8.00011 129.495 8.02423 128.874 8.19012 128.284L12.5846 112.728C12.8198 111.887 13.3314 111.15 14.0368 110.635C14.7423 110.12 15.6006 109.857 16.4734 109.889H81.3012C82.1741 109.857 83.0324 110.12 83.7378 110.635C84.4433 111.15 84.9549 111.887 85.1901 112.728L89.5846 128.284C89.7419 128.861 89.764 129.466 89.6494 130.053C89.5347 130.64 89.2863 131.192 88.9235 131.667C88.5496 132.166 88.0611 132.568 87.4994 132.839C86.9376 133.11 86.319 133.241 85.6957 133.223ZM17.1734 125.445H80.5235L78.1901 117.667H19.3512L17.1734 125.445Z" fill="url(#paint2_linear_1299_162)"/>
<path d="M129.173 107.711L74.729 53.2661L83.9067 44.0883L56.879 17.0605L22.1123 51.8272L49.0623 78.7772L58.2012 69.6772L112.646 124.122C114.833 126.306 117.798 127.534 120.89 127.534C123.982 127.534 126.947 126.306 129.135 124.122C131.301 121.943 132.52 118.997 132.527 115.924C132.535 112.851 131.329 109.9 129.173 107.711ZM33.079 51.8272L56.879 28.2217L72.8623 44.205L49.0623 67.9661L33.079 51.8272ZM123.651 118.716C122.923 119.44 121.937 119.847 120.91 119.847C119.882 119.847 118.896 119.44 118.168 118.716L63.7234 64.2717L69.2067 58.7883L123.651 113.233C124.376 113.961 124.782 114.947 124.782 115.974C124.782 117.002 124.376 117.987 123.651 118.716Z" fill="url(#paint3_linear_1299_162)"/>
</g>
<defs>
<filter id="filter0_d_1299_162" x="-3.58789" y="-3" width="148" height="148" filterUnits="userSpaceOnUse" color-interpolation-filters="sRGB">
<feFlood flood-opacity="0" result="BackgroundImageFix"/>
<feColorMatrix in="SourceAlpha" type="matrix" values="0 0 0 0 0 0 0 0 0 0 0 0 0 0 0 0 0 0 127 0" result="hardAlpha"/>
<feOffset/>
<feGaussianBlur stdDeviation="2"/>
<feComposite in2="hardAlpha" operator="out"/>
<feColorMatrix type="matrix" values="0 0 0 0 0.929412 0 0 0 0 1 0 0 0 0 0.811765 0 0 0 0.25 0"/>
<feBlend mode="normal" in2="BackgroundImageFix" result="effect1_dropShadow_1299_162"/>
<feBlend mode="normal" in="SourceGraphic" in2="effect1_dropShadow_1299_162" result="shape"/>
</filter>
<linearGradient id="paint0_linear_1299_162" x1="78.1866" y1="4.80078" x2="78.1866" y2="41.4835" gradientUnits="userSpaceOnUse">
<stop stop-color="white"/>
<stop offset="1" stop-color="#3D3D3D"/>
</linearGradient>
<linearGradient id="paint1_linear_1299_162" x1="28.1922" y1="54.7285" x2="28.1922" y2="91.5948" gradientUnits="userSpaceOnUse">
<stop stop-color="white"/>
<stop offset="1" stop-color="#3D3D3D"/>
</linearGradient>
<linearGradient id="paint2_linear_1299_162" x1="48.8832" y1="109.887" x2="48.8832" y2="133.225" gradientUnits="userSpaceOnUse">
<stop stop-color="white"/>
<stop offset="1" stop-color="#3D3D3D"/>
</linearGradient>
<linearGradient id="paint3_linear_1299_162" x1="77.3198" y1="17.0605" x2="77.3198" y2="127.534" gradientUnits="userSpaceOnUse">
<stop stop-color="white"/>
<stop offset="1" stop-color="#3D3D3D"/>
</linearGradient>
<clipPath id="clip0_1299_162">
<rect width="140" height="140" fill="white" transform="translate(0.412109 1)"/>
</clipPath>
</defs>
</svg>
