<svg width="158" height="148" viewBox="0 0 158 148" fill="none" xmlns="http://www.w3.org/2000/svg">
<g filter="url(#filter0_d_1299_150)">
<path d="M137.1 67.9707L154 54.195L139.391 0L64.196 2.6528L56.9518 15.0357L31.1989 8.21735L4 70.0279L16.3894 81.7662L9.84795 92.9091C7.78193 96.4288 7.08467 100.623 7.88477 104.72C8.68457 108.817 10.8862 112.325 14.0834 114.599C16.4163 116.259 19.0762 117.116 21.7896 117.116C22.5039 117.116 23.2214 117.054 23.938 116.934C24.8453 120.486 26.8814 123.702 29.911 125.857C32.2964 127.554 34.9741 128.364 37.6229 128.364C38.3383 128.364 39.0505 128.298 39.7551 128.181C40.692 131.871 42.7902 135.018 45.7384 137.115C48.124 138.812 50.8015 139.622 53.4502 139.622C58.1298 139.622 62.7194 137.092 65.4426 132.453L67.3861 129.142L78.7688 137.448L78.8163 137.483C81.1492 139.142 83.8091 140 86.5226 140C87.5274 140 88.5402 139.882 89.546 139.645C93.2679 138.764 96.4551 136.34 98.5211 132.821C99.9751 130.344 100.711 127.581 100.79 124.828C101.519 124.781 102.251 124.674 102.979 124.502C106.7 123.621 109.888 121.198 111.954 117.679C113.379 115.251 114.152 112.502 114.232 109.685C114.958 109.638 115.686 109.531 116.411 109.36C120.133 108.479 123.32 106.056 125.386 102.536C126.841 100.057 127.578 97.2905 127.655 94.5351C132.042 94.2549 136.256 91.7588 138.818 87.3939C140.884 83.8743 141.581 79.68 140.782 75.5831C140.212 72.6691 138.935 70.053 137.1 67.9707ZM69.572 13.1005L132.252 10.8895L142.816 50.0813L128.766 61.5338L75.0367 23.0254L59.7854 48.5056L59.7619 48.5453C58.3867 50.8865 55.5385 51.5602 53.4115 50.0481C51.2846 48.5353 50.6723 45.3994 52.0507 43.051L69.572 13.1005ZM25.6756 104.167C24.3004 106.509 21.4516 107.183 19.3255 105.67C18.2951 104.937 17.5855 103.806 17.3277 102.486C17.0702 101.166 17.2946 99.8143 17.9608 98.6801L27.6203 82.2244C28.4983 80.7291 29.9767 79.9141 31.4852 79.9141C32.3386 79.9141 33.202 80.1753 33.9707 80.722C35.0011 81.455 35.7104 82.5853 35.9682 83.9056C36.226 85.2258 36.0013 86.5777 35.3356 87.7119L25.6756 104.167ZM41.5032 115.425C40.128 117.766 37.2795 118.44 35.1528 116.927C33.0259 115.415 32.4136 112.279 33.7882 109.938L43.4479 93.4819C44.326 91.9865 45.8043 91.1716 47.3128 91.1716C48.1662 91.1716 49.0296 91.4328 49.7983 91.9797C51.9253 93.4925 52.5376 96.6284 51.1633 98.9697L41.5032 115.425ZM66.99 110.227L57.3303 126.683C55.956 129.025 53.1071 129.698 50.9805 128.185C49.9501 127.452 49.2405 126.322 48.983 125.001C48.7252 123.681 48.9496 122.33 49.6155 121.195L59.2753 104.739C59.9412 103.605 60.9681 102.824 62.1675 102.541C62.4918 102.464 62.8179 102.426 63.1413 102.426C64.0158 102.426 64.873 102.703 65.6248 103.238C67.752 104.75 68.3644 107.886 66.99 110.227ZM130.705 81.6227C130.04 82.7569 129.013 83.5376 127.813 83.8214C126.614 84.1055 125.386 83.8578 124.356 83.1252L121.151 80.8458L121.151 80.8455L106.201 70.2124L100.959 79.1421L104.164 81.4221L115.909 89.7758C116.939 90.5089 117.648 91.6392 117.906 92.9595C118.164 94.2797 117.939 95.6316 117.274 96.7658C116.608 97.9 115.581 98.6811 114.382 98.9648C113.182 99.2483 111.954 99.0013 110.924 98.2686L95.9743 87.6355L90.7325 96.5652L102.477 104.918C104.604 106.431 105.216 109.567 103.842 111.908C103.176 113.042 102.149 113.824 100.95 114.107C99.7498 114.391 98.5223 114.144 97.4919 113.411L84.7308 104.335L79.489 113.264L89.0447 120.061C91.1717 121.575 91.7843 124.71 90.4097 127.051C89.7438 128.186 88.7169 128.967 87.5175 129.25C86.3257 129.532 85.1058 129.29 84.0795 128.568L72.63 120.212L75.1035 115.998C79.3683 108.733 77.4684 99.0023 70.8681 94.3081C67.8361 92.1516 64.3322 91.4309 61.0158 91.9817C60.1094 88.4269 58.0727 85.2068 55.041 83.0503C52.0111 80.8955 48.5102 80.174 45.1958 80.7229C44.2586 77.0349 42.1606 73.8887 39.2134 71.7925C33.7583 67.9117 26.7745 68.6721 22.1066 73.1547L15.932 67.3048L36.5028 20.5574L51.4141 24.505L43.9355 37.2881C39.6707 44.5535 41.5706 54.2836 48.1709 58.9781C54.7645 63.6684 63.5934 61.5848 67.8634 54.3369L77.8182 37.7054L129.343 74.633C130.373 75.3661 131.082 76.4964 131.34 77.8167C131.596 79.1366 131.371 80.4882 130.705 81.6227Z" fill="url(#paint0_linear_1299_150)"/>
</g>
<defs>
<filter id="filter0_d_1299_150" x="0" y="0" width="158" height="148" filterUnits="userSpaceOnUse" color-interpolation-filters="sRGB">
<feFlood flood-opacity="0" result="BackgroundImageFix"/>
<feColorMatrix in="SourceAlpha" type="matrix" values="0 0 0 0 0 0 0 0 0 0 0 0 0 0 0 0 0 0 127 0" result="hardAlpha"/>
<feOffset dy="4"/>
<feGaussianBlur stdDeviation="2"/>
<feComposite in2="hardAlpha" operator="out"/>
<feColorMatrix type="matrix" values="0 0 0 0 0.929412 0 0 0 0 1 0 0 0 0 0.811765 0 0 0 0.25 0"/>
<feBlend mode="normal" in2="BackgroundImageFix" result="effect1_dropShadow_1299_150"/>
<feBlend mode="normal" in="SourceGraphic" in2="effect1_dropShadow_1299_150" result="shape"/>
</filter>
<linearGradient id="paint0_linear_1299_150" x1="79" y1="0" x2="79" y2="140" gradientUnits="userSpaceOnUse">
<stop stop-color="white"/>
<stop offset="1" stop-color="#3D3D3D"/>
</linearGradient>
</defs>
</svg>
