<svg width="150" height="140" viewBox="0 0 150 140" fill="none" xmlns="http://www.w3.org/2000/svg">
<path id="Vector" d="M133.1 67.9707L150 54.195L135.391 0L60.196 2.6528L52.9518 15.0357L27.1989 8.21735L0 70.0279L12.3894 81.7662L5.84795 92.9091C3.78193 96.4288 3.08467 100.623 3.88477 104.72C4.68457 108.817 6.88623 112.325 10.0834 114.599C12.4163 116.259 15.0762 117.116 17.7896 117.116C18.5039 117.116 19.2214 117.054 19.938 116.934C20.8453 120.486 22.8814 123.702 25.911 125.857C28.2964 127.554 30.9741 128.364 33.6229 128.364C34.3383 128.364 35.0505 128.298 35.7551 128.181C36.692 131.871 38.7902 135.018 41.7384 137.115C44.124 138.812 46.8015 139.622 49.4502 139.622C54.1298 139.622 58.7194 137.092 61.4426 132.453L63.3861 129.142L74.7688 137.448L74.8163 137.483C77.1492 139.142 79.8091 140 82.5226 140C83.5274 140 84.5402 139.882 85.546 139.645C89.2679 138.764 92.4551 136.34 94.5211 132.821C95.9751 130.344 96.7113 127.581 96.7901 124.828C97.5193 124.781 98.2506 124.674 98.9786 124.502C102.7 123.621 105.888 121.198 107.954 117.679C109.379 115.251 110.152 112.502 110.232 109.685C110.958 109.638 111.686 109.531 112.411 109.36C116.133 108.479 119.32 106.056 121.386 102.536C122.842 100.057 123.578 97.2905 123.655 94.5351C128.042 94.2549 132.256 91.7588 134.818 87.3939C136.884 83.8743 137.581 79.68 136.782 75.5831C136.212 72.6691 134.935 70.053 133.1 67.9707ZM65.572 13.1005L128.252 10.8895L138.816 50.0813L124.766 61.5338L71.0367 23.0254L55.7854 48.5056L55.7619 48.5453C54.3867 50.8865 51.5385 51.5602 49.4115 50.0481C47.2846 48.5353 46.6723 45.3994 48.0507 43.051L65.572 13.1005ZM21.6756 104.167C20.3004 106.509 17.4516 107.183 15.3255 105.67C14.2951 104.937 13.5855 103.806 13.3277 102.486C13.0702 101.166 13.2946 99.8143 13.9608 98.6801L23.6203 82.2244C24.4983 80.7291 25.9767 79.9141 27.4852 79.9141C28.3386 79.9141 29.202 80.1753 29.9707 80.722C31.0011 81.455 31.7104 82.5853 31.9682 83.9056C32.226 85.2258 32.0013 86.5777 31.3356 87.7119L21.6756 104.167ZM37.5032 115.425C36.128 117.766 33.2795 118.44 31.1528 116.928C29.0259 115.415 28.4136 112.279 29.7882 109.938L39.4479 93.4819C40.326 91.9865 41.8043 91.1716 43.3128 91.1716C44.1662 91.1716 45.0296 91.4328 45.7983 91.9797C47.9253 93.4925 48.5376 96.6284 47.1633 98.9697L37.5032 115.425ZM62.99 110.227L53.3303 126.683C51.956 129.025 49.1071 129.698 46.9805 128.185C45.9501 127.452 45.2405 126.322 44.983 125.001C44.7252 123.681 44.9496 122.33 45.6155 121.195L55.2753 104.739C55.9412 103.605 56.9681 102.824 58.1675 102.541C58.4918 102.464 58.8179 102.426 59.1413 102.426C60.0158 102.426 60.873 102.703 61.6248 103.238C63.752 104.75 64.3644 107.886 62.99 110.227ZM126.705 81.6227C126.04 82.7569 125.013 83.5376 123.813 83.8214C122.614 84.1055 121.386 83.8578 120.356 83.1252L117.151 80.8458L117.151 80.8455L102.201 70.2124L96.9592 79.1421L100.164 81.4221L111.909 89.7758C112.939 90.5089 113.648 91.6392 113.906 92.9595C114.164 94.2797 113.939 95.6316 113.274 96.7658C112.608 97.9 111.581 98.6811 110.382 98.9648C109.182 99.2483 107.954 99.0013 106.924 98.2686L91.9743 87.6355L86.7325 96.5652L98.4768 104.918C100.604 106.431 101.216 109.567 99.8417 111.908C99.1758 113.042 98.1486 113.824 96.9495 114.107C95.7498 114.391 94.5223 114.144 93.4919 113.411L80.7308 104.335L75.489 113.264L85.0447 120.061C87.1717 121.575 87.7843 124.71 86.4097 127.051C85.7438 128.186 84.7169 128.967 83.5175 129.25C82.3257 129.532 81.1058 129.29 80.0795 128.568L68.63 120.212L71.1035 115.998C75.3683 108.733 73.4684 99.0023 66.8681 94.3081C63.8361 92.1516 60.3322 91.4309 57.0158 91.9817C56.1094 88.4269 54.0727 85.2068 51.041 83.0503C48.0111 80.8955 44.5102 80.1741 41.1958 80.7229C40.2586 77.0349 38.1606 73.8887 35.2134 71.7926C29.7583 67.9117 22.7745 68.6721 18.1066 73.1547L11.932 67.3048L32.5028 20.5574L47.4141 24.505L39.9355 37.2881C35.6707 44.5535 37.5706 54.2836 44.1709 58.9781C50.7645 63.6684 59.5934 61.5848 63.8634 54.3369L73.8182 37.7054L125.343 74.633C126.373 75.3661 127.082 76.4964 127.34 77.8167C127.596 79.1366 127.371 80.4881 126.705 81.6227Z" fill="#7CCB12"/>
</svg>
