<svg width="148" height="148" viewBox="0 0 148 148" fill="none" xmlns="http://www.w3.org/2000/svg">
<path id="Vector" d="M42.8889 4V28.7533M4 42.8889H28.7533M4 74H27.3333M4 105.111H28.7533M119.246 42.8889H144M120.667 74H144M119.246 105.111H144M42.8889 119.246V144M74 4V27.3333M74 120.667V144M105.111 4V28.7533M105.111 119.246V144M58.4444 89.5556H58.5222M89.5556 89.5556H89.6333M89.5556 58.4444H89.6333M58.4444 58.4444H58.5222M64.6667 120.667H83.3333C96.4016 120.667 102.935 120.667 107.927 118.123C112.317 115.886 115.886 112.317 118.123 107.927C120.667 102.935 120.667 96.4016 120.667 83.3333V64.6667C120.667 51.5988 120.667 45.0648 118.123 40.0736C115.886 35.6831 112.317 32.1136 107.927 29.8765C102.935 27.3333 96.4016 27.3333 83.3333 27.3333H64.6667C51.5988 27.3333 45.0648 27.3333 40.0736 29.8765C35.6831 32.1136 32.1136 35.6831 29.8765 40.0736C27.3333 45.0648 27.3333 51.5988 27.3333 64.6667V83.3333C27.3333 96.4016 27.3333 102.935 29.8765 107.927C32.1136 112.317 35.6831 115.886 40.0736 118.123C45.0648 120.667 51.5988 120.667 64.6667 120.667Z" stroke="#77C611" stroke-width="8" stroke-linecap="round" stroke-linejoin="round"/>
</svg>
