<svg width="149" height="148" viewBox="0 0 149 148" fill="none" xmlns="http://www.w3.org/2000/svg">
<path d="M43.301 4V28.7533M4.41211 42.8889H29.1654M4.41211 74H27.7454M4.41211 105.111H29.1654M119.659 42.8889H144.412M121.079 74H144.412M119.659 105.111H144.412M43.301 119.246V144M74.4121 4V27.3333M74.4121 120.667V144M105.523 4V28.7533M105.523 119.246V144M58.8566 89.5556H58.9343M89.9677 89.5556H90.0454M89.9677 58.4444H90.0454M58.8566 58.4444H58.9343M65.0788 120.667H83.7454C96.8137 120.667 103.347 120.667 108.339 118.123C112.729 115.886 116.299 112.317 118.535 107.927C121.079 102.935 121.079 96.4016 121.079 83.3333V64.6667C121.079 51.5988 121.079 45.0648 118.535 40.0736C116.299 35.6831 112.729 32.1136 108.339 29.8765C103.347 27.3333 96.8137 27.3333 83.7454 27.3333H65.0788C52.0109 27.3333 45.4769 27.3333 40.4857 29.8765C36.0952 32.1136 32.5257 35.6831 30.2886 40.0736C27.7454 45.0648 27.7454 51.5988 27.7454 64.6667V83.3333C27.7454 96.4016 27.7454 102.935 30.2886 107.927C32.5257 112.317 36.0952 115.886 40.4857 118.123C45.4769 120.667 52.0109 120.667 65.0788 120.667Z" stroke="url(#paint0_linear_1299_156)" stroke-width="8" stroke-linecap="round" stroke-linejoin="round"/>
<defs>
<linearGradient id="paint0_linear_1299_156" x1="74.4121" y1="4" x2="74.4121" y2="144" gradientUnits="userSpaceOnUse">
<stop stop-color="white"/>
<stop offset="1" stop-color="#3D3D3D"/>
</linearGradient>
</defs>
</svg>
