<svg width="154" height="124" viewBox="0 0 154 124" fill="none" xmlns="http://www.w3.org/2000/svg">
<g filter="url(#filter0_d_1299_199)">
<mask id="path-1-inside-1_1299_199" fill="white">
<path d="M151.134 62.2121C149.182 43.8419 138.895 28.9878 125.242 18.8692C111.44 8.63063 94.1728 3.01083 77.8166 3C60.8396 3.00271 50.3667 5.1575 43.4337 8.13795C36.5831 11.0387 33.2751 15.0499 31.4587 17.4149C24.0354 18.6268 16.6416 22.9337 10.774 29.0543C4.5439 35.596 0.0162422 44.3427 0 53.9551C0 64.4734 2.43994 73.3615 7.30868 79.972C11.6261 85.8661 17.9227 89.739 25.4178 91.1454C25.9105 93.9896 27.0902 97.162 29.5301 100.063C32.0603 103.089 35.512 105.291 39.5924 106.69C43.6782 108.096 48.4141 108.746 53.7995 108.751H76.3834C76.9398 110.173 77.619 111.529 78.5541 112.725C80.8527 115.668 84.1634 117.735 88.1292 119.029C92.114 120.332 96.8095 120.921 102.264 120.923C104.944 120.923 107.482 120.801 109.637 120.697H109.645C111.19 120.614 112.519 120.556 113.464 120.556C116.312 120.556 119.037 119.863 121.38 118.505C123.724 117.152 125.669 115.146 126.998 112.683C127.669 111.433 128.111 110.123 128.441 108.802C133.473 107.862 137.647 106.024 140.896 103.68C144.705 100.937 147.323 97.6315 149.102 94.6297C152.578 88.7488 153.995 82.2234 154 76.1665C153.995 71.0042 152.951 66.1965 151.134 62.2121ZM143.13 91.0919C141.732 93.4491 139.716 95.9769 136.839 98.0463C133.957 100.113 130.21 101.77 125.091 102.353L122.228 102.676L122.017 105.55C121.929 106.791 121.543 108.187 120.893 109.388C120.139 110.765 119.138 111.782 117.91 112.496C116.677 113.205 115.201 113.612 113.464 113.614C112.239 113.614 110.843 113.687 109.296 113.764L109.874 113.737L109.298 113.764C107.149 113.87 104.733 113.985 102.264 113.985C95.6644 113.996 90.7448 112.976 87.6022 111.319C86.0228 110.496 84.8772 109.542 84.0277 108.458C83.1835 107.369 82.6108 106.13 82.2886 104.583L81.7159 101.81H53.7998C48.9843 101.81 44.9863 101.211 41.8513 100.132C38.7111 99.0431 36.4553 97.5223 34.8491 95.6045C32.7557 93.1062 32.1349 90.395 32.0552 88.0137L31.9619 84.9827L28.9469 84.6687C21.8728 83.8927 16.6494 80.9017 12.8915 75.8516C9.15458 70.794 6.93872 63.4294 6.93872 53.9554C6.92248 46.6097 10.5102 39.3753 15.7946 33.8406C21.0472 28.29 27.9642 24.6144 33.6667 24.0763L34.9745 23.9404L35.8667 22.9761C36.2661 22.5394 36.5831 22.1186 36.8574 21.7724C38.6579 19.5243 40.5011 17.0182 46.1823 14.5118C51.8505 12.0586 61.4174 9.93331 77.8166 9.93602C92.5778 9.92519 108.58 15.1191 121.109 24.4388C133.659 33.7768 142.699 47.0434 144.297 63.4134L144.358 64.0445L144.635 64.612C146.092 67.5525 147.07 71.7129 147.062 76.1662C147.062 81.1442 145.876 86.4605 143.13 91.0919Z"/>
</mask>
<path d="M151.134 62.2121C149.182 43.8419 138.895 28.9878 125.242 18.8692C111.44 8.63063 94.1728 3.01083 77.8166 3C60.8396 3.00271 50.3667 5.1575 43.4337 8.13795C36.5831 11.0387 33.2751 15.0499 31.4587 17.4149C24.0354 18.6268 16.6416 22.9337 10.774 29.0543C4.5439 35.596 0.0162422 44.3427 0 53.9551C0 64.4734 2.43994 73.3615 7.30868 79.972C11.6261 85.8661 17.9227 89.739 25.4178 91.1454C25.9105 93.9896 27.0902 97.162 29.5301 100.063C32.0603 103.089 35.512 105.291 39.5924 106.69C43.6782 108.096 48.4141 108.746 53.7995 108.751H76.3834C76.9398 110.173 77.619 111.529 78.5541 112.725C80.8527 115.668 84.1634 117.735 88.1292 119.029C92.114 120.332 96.8095 120.921 102.264 120.923C104.944 120.923 107.482 120.801 109.637 120.697H109.645C111.19 120.614 112.519 120.556 113.464 120.556C116.312 120.556 119.037 119.863 121.38 118.505C123.724 117.152 125.669 115.146 126.998 112.683C127.669 111.433 128.111 110.123 128.441 108.802C133.473 107.862 137.647 106.024 140.896 103.68C144.705 100.937 147.323 97.6315 149.102 94.6297C152.578 88.7488 153.995 82.2234 154 76.1665C153.995 71.0042 152.951 66.1965 151.134 62.2121ZM143.13 91.0919C141.732 93.4491 139.716 95.9769 136.839 98.0463C133.957 100.113 130.21 101.77 125.091 102.353L122.228 102.676L122.017 105.55C121.929 106.791 121.543 108.187 120.893 109.388C120.139 110.765 119.138 111.782 117.91 112.496C116.677 113.205 115.201 113.612 113.464 113.614C112.239 113.614 110.843 113.687 109.296 113.764L109.874 113.737L109.298 113.764C107.149 113.87 104.733 113.985 102.264 113.985C95.6644 113.996 90.7448 112.976 87.6022 111.319C86.0228 110.496 84.8772 109.542 84.0277 108.458C83.1835 107.369 82.6108 106.13 82.2886 104.583L81.7159 101.81H53.7998C48.9843 101.81 44.9863 101.211 41.8513 100.132C38.7111 99.0431 36.4553 97.5223 34.8491 95.6045C32.7557 93.1062 32.1349 90.395 32.0552 88.0137L31.9619 84.9827L28.9469 84.6687C21.8728 83.8927 16.6494 80.9017 12.8915 75.8516C9.15458 70.794 6.93872 63.4294 6.93872 53.9554C6.92248 46.6097 10.5102 39.3753 15.7946 33.8406C21.0472 28.29 27.9642 24.6144 33.6667 24.0763L34.9745 23.9404L35.8667 22.9761C36.2661 22.5394 36.5831 22.1186 36.8574 21.7724C38.6579 19.5243 40.5011 17.0182 46.1823 14.5118C51.8505 12.0586 61.4174 9.93331 77.8166 9.93602C92.5778 9.92519 108.58 15.1191 121.109 24.4388C133.659 33.7768 142.699 47.0434 144.297 63.4134L144.358 64.0445L144.635 64.612C146.092 67.5525 147.07 71.7129 147.062 76.1662C147.062 81.1442 145.876 86.4605 143.13 91.0919Z" fill="url(#paint0_linear_1299_199)" stroke="url(#paint1_linear_1299_199)" stroke-width="2" mask="url(#path-1-inside-1_1299_199)"/>
<mask id="path-2-inside-2_1299_199" fill="white">
<path d="M107.392 28.8349H114.628C116.184 28.8349 117.449 27.559 117.449 25.9555C117.449 24.3869 116.184 23.1191 114.628 23.1191H107.392C105.788 23.1191 104.518 24.3872 104.518 25.9555C104.518 27.559 105.788 28.8349 107.392 28.8349Z"/>
</mask>
<path d="M107.392 28.8349H114.628C116.184 28.8349 117.449 27.559 117.449 25.9555C117.449 24.3869 116.184 23.1191 114.628 23.1191H107.392C105.788 23.1191 104.518 24.3872 104.518 25.9555C104.518 27.559 105.788 28.8349 107.392 28.8349Z" fill="url(#paint2_linear_1299_199)" stroke="url(#paint3_linear_1299_199)" stroke-width="2" mask="url(#path-2-inside-2_1299_199)"/>
<mask id="path-3-inside-3_1299_199" fill="white">
<path d="M73.4536 56.1733C73.4536 57.7635 74.7319 59.0499 76.3113 59.0499C77.864 59.0499 79.1612 57.7638 79.1612 56.1733V40.5868C79.1612 39.8652 79.3745 39.6971 79.4277 39.6306C80.3361 38.7385 83.7211 38.7385 86.0942 38.7385L86.1848 38.7704H104.901C105.263 38.7704 105.647 38.7385 106.076 38.7385C107.584 38.672 109.445 38.6079 110.226 39.3617C110.721 39.8463 111.009 40.9228 111.009 42.3659V51.9335V52.3594C110.947 54.3277 110.937 57.6411 113.153 59.8915C114.016 60.7812 115.619 61.8358 118.235 61.8358H132.94C134.485 61.8358 135.753 60.5626 135.753 58.9618C135.753 57.3984 134.485 56.0987 132.94 56.0987H118.235L117.207 55.8562C116.685 55.3157 116.719 53.3501 116.719 52.4072V42.3656C116.719 39.2655 115.851 36.8682 114.194 35.2675C111.643 32.8197 108.172 32.9211 105.884 33.0167C105.506 33.0167 105.192 33.0303 104.901 33.0303H95.4675C95.5794 32.2416 95.5794 31.4482 95.5499 30.7344V22.4322C95.5499 20.8715 94.2662 19.582 92.7081 19.582C91.1182 19.582 89.8718 20.8712 89.8718 22.4322V30.7795C89.8718 31.4478 89.8718 32.5054 89.7304 32.7797C89.7304 32.7797 89.3391 33.03 87.8313 33.03C87.3975 33.03 86.9313 33.03 86.4224 33.03C82.5363 32.9818 78.0673 32.9686 75.4093 35.5788C74.5409 36.4577 73.4542 38.0476 73.4542 40.5862V56.1733H73.4536Z"/>
</mask>
<path d="M73.4536 56.1733C73.4536 57.7635 74.7319 59.0499 76.3113 59.0499C77.864 59.0499 79.1612 57.7638 79.1612 56.1733V40.5868C79.1612 39.8652 79.3745 39.6971 79.4277 39.6306C80.3361 38.7385 83.7211 38.7385 86.0942 38.7385L86.1848 38.7704H104.901C105.263 38.7704 105.647 38.7385 106.076 38.7385C107.584 38.672 109.445 38.6079 110.226 39.3617C110.721 39.8463 111.009 40.9228 111.009 42.3659V51.9335V52.3594C110.947 54.3277 110.937 57.6411 113.153 59.8915C114.016 60.7812 115.619 61.8358 118.235 61.8358H132.94C134.485 61.8358 135.753 60.5626 135.753 58.9618C135.753 57.3984 134.485 56.0987 132.94 56.0987H118.235L117.207 55.8562C116.685 55.3157 116.719 53.3501 116.719 52.4072V42.3656C116.719 39.2655 115.851 36.8682 114.194 35.2675C111.643 32.8197 108.172 32.9211 105.884 33.0167C105.506 33.0167 105.192 33.0303 104.901 33.0303H95.4675C95.5794 32.2416 95.5794 31.4482 95.5499 30.7344V22.4322C95.5499 20.8715 94.2662 19.582 92.7081 19.582C91.1182 19.582 89.8718 20.8712 89.8718 22.4322V30.7795C89.8718 31.4478 89.8718 32.5054 89.7304 32.7797C89.7304 32.7797 89.3391 33.03 87.8313 33.03C87.3975 33.03 86.9313 33.03 86.4224 33.03C82.5363 32.9818 78.0673 32.9686 75.4093 35.5788C74.5409 36.4577 73.4542 38.0476 73.4542 40.5862V56.1733H73.4536Z" fill="url(#paint4_linear_1299_199)" stroke="url(#paint5_linear_1299_199)" stroke-width="2" mask="url(#path-3-inside-3_1299_199)"/>
<mask id="path-4-inside-4_1299_199" fill="white">
<path d="M64.2702 32.8325C65.8656 32.8325 67.1442 31.5247 67.1442 29.9667V25.8779H71.9356C73.4859 25.8779 74.7669 24.5941 74.7669 23.0042C74.7669 21.4516 73.4859 20.1489 71.9356 20.1489H67.1442V17.0006C67.1442 15.4266 65.8656 14.1348 64.2702 14.1348C62.72 14.1348 61.439 15.4263 61.439 17.0006V29.9667C61.439 31.5247 62.72 32.8325 64.2702 32.8325Z"/>
</mask>
<path d="M64.2702 32.8325C65.8656 32.8325 67.1442 31.5247 67.1442 29.9667V25.8779H71.9356C73.4859 25.8779 74.7669 24.5941 74.7669 23.0042C74.7669 21.4516 73.4859 20.1489 71.9356 20.1489H67.1442V17.0006C67.1442 15.4266 65.8656 14.1348 64.2702 14.1348C62.72 14.1348 61.439 15.4263 61.439 17.0006V29.9667C61.439 31.5247 62.72 32.8325 64.2702 32.8325Z" fill="url(#paint6_linear_1299_199)" stroke="url(#paint7_linear_1299_199)" stroke-width="2" mask="url(#path-4-inside-4_1299_199)"/>
<mask id="path-5-inside-5_1299_199" fill="white">
<path d="M33.3388 37.0364H45.21C47.1464 36.9675 48.9893 36.9675 49.8577 37.8807C50.6274 38.632 51.0509 40.3203 51.0509 42.7443V53.8886C51.0509 55.4652 52.3241 56.7598 53.9326 56.7598C55.4829 56.7598 56.7774 55.4655 56.7774 53.8886V51.5178H61.2549C62.8343 51.5178 64.0942 50.2313 64.0942 48.6574C64.0942 47.078 62.8346 45.7702 61.2549 45.7702H56.7774V42.7443C56.7774 38.632 55.8345 35.7208 53.8821 33.8003C51.3492 31.2593 47.9267 31.2833 45.1965 31.3074H33.3388C31.7194 31.3074 30.478 32.6044 30.478 34.1573C30.478 35.7445 31.7194 37.0364 33.3388 37.0364Z"/>
</mask>
<path d="M33.3388 37.0364H45.21C47.1464 36.9675 48.9893 36.9675 49.8577 37.8807C50.6274 38.632 51.0509 40.3203 51.0509 42.7443V53.8886C51.0509 55.4652 52.3241 56.7598 53.9326 56.7598C55.4829 56.7598 56.7774 55.4655 56.7774 53.8886V51.5178H61.2549C62.8343 51.5178 64.0942 50.2313 64.0942 48.6574C64.0942 47.078 62.8346 45.7702 61.2549 45.7702H56.7774V42.7443C56.7774 38.632 55.8345 35.7208 53.8821 33.8003C51.3492 31.2593 47.9267 31.2833 45.1965 31.3074H33.3388C31.7194 31.3074 30.478 32.6044 30.478 34.1573C30.478 35.7445 31.7194 37.0364 33.3388 37.0364Z" fill="url(#paint8_linear_1299_199)" stroke="url(#paint9_linear_1299_199)" stroke-width="2" mask="url(#path-5-inside-5_1299_199)"/>
<mask id="path-6-inside-6_1299_199" fill="white">
<path d="M40.8736 53.704C40.8736 52.1246 39.5607 50.8301 38.0213 50.8301H17.9838C16.4017 50.8301 15.1099 52.1246 15.1099 53.704C15.1099 55.278 16.4017 56.5699 17.9838 56.5699H25.2471V61.7851C25.2471 63.3751 26.5068 64.6483 28.0702 64.6483C29.695 64.6483 30.9547 63.3751 30.9547 61.7851V56.5699H38.0213C39.5607 56.5699 40.8736 55.2777 40.8736 53.704Z"/>
</mask>
<path d="M40.8736 53.704C40.8736 52.1246 39.5607 50.8301 38.0213 50.8301H17.9838C16.4017 50.8301 15.1099 52.1246 15.1099 53.704C15.1099 55.278 16.4017 56.5699 17.9838 56.5699H25.2471V61.7851C25.2471 63.3751 26.5068 64.6483 28.0702 64.6483C29.695 64.6483 30.9547 63.3751 30.9547 61.7851V56.5699H38.0213C39.5607 56.5699 40.8736 55.2777 40.8736 53.704Z" fill="url(#paint10_linear_1299_199)" stroke="url(#paint11_linear_1299_199)" stroke-width="2" mask="url(#path-6-inside-6_1299_199)"/>
<mask id="path-7-inside-7_1299_199" fill="white">
<path d="M58.5249 72.4477C59.0257 72.4477 59.5 72.4477 59.9232 72.4477H82.9943C88.2574 72.4477 92.25 71.0521 94.9053 68.2716C98.9857 63.9515 98.7008 57.5536 98.4903 53.3267C98.453 52.5197 98.4157 51.7609 98.4157 51.1241C98.4157 49.5312 97.1374 48.2637 95.5258 48.2637C93.9677 48.2637 92.7081 49.5315 92.7081 51.1241C92.7081 51.8484 92.7453 52.6794 92.7826 53.5637C92.9583 57.2501 93.1556 61.7862 90.7211 64.3537C89.2349 65.9358 86.6058 66.7268 82.9943 66.7268H59.9232C59.5211 66.7268 59.1111 66.7268 58.6154 66.7268C54.0637 66.6576 46.4085 66.5349 41.5452 71.3345C38.8177 74.0247 37.4302 77.8148 37.4302 82.5825C37.4302 84.1324 38.6844 85.446 40.2828 85.446C41.8408 85.446 43.1432 84.1327 43.1432 82.5825C43.1432 79.3437 43.9234 76.9943 45.5642 75.3884C48.7071 72.3039 54.6255 72.3944 58.5249 72.4477Z"/>
</mask>
<path d="M58.5249 72.4477C59.0257 72.4477 59.5 72.4477 59.9232 72.4477H82.9943C88.2574 72.4477 92.25 71.0521 94.9053 68.2716C98.9857 63.9515 98.7008 57.5536 98.4903 53.3267C98.453 52.5197 98.4157 51.7609 98.4157 51.1241C98.4157 49.5312 97.1374 48.2637 95.5258 48.2637C93.9677 48.2637 92.7081 49.5315 92.7081 51.1241C92.7081 51.8484 92.7453 52.6794 92.7826 53.5637C92.9583 57.2501 93.1556 61.7862 90.7211 64.3537C89.2349 65.9358 86.6058 66.7268 82.9943 66.7268H59.9232C59.5211 66.7268 59.1111 66.7268 58.6154 66.7268C54.0637 66.6576 46.4085 66.5349 41.5452 71.3345C38.8177 74.0247 37.4302 77.8148 37.4302 82.5825C37.4302 84.1324 38.6844 85.446 40.2828 85.446C41.8408 85.446 43.1432 84.1327 43.1432 82.5825C43.1432 79.3437 43.9234 76.9943 45.5642 75.3884C48.7071 72.3039 54.6255 72.3944 58.5249 72.4477Z" fill="url(#paint12_linear_1299_199)" stroke="url(#paint13_linear_1299_199)" stroke-width="2" mask="url(#path-7-inside-7_1299_199)"/>
<mask id="path-8-inside-8_1299_199" fill="white">
<path d="M97.4413 84.8404C97.4413 83.2878 96.1868 81.9824 94.5914 81.9824H58.384C56.8229 81.9824 55.5151 83.2878 55.5151 84.8404C55.5151 86.425 56.8229 87.7036 58.384 87.7036H69.4557V93.4139C69.4557 95.015 70.7265 96.2719 72.3005 96.2719C73.8799 96.2719 75.1558 95.015 75.1558 93.4139V87.7036H94.5914C96.1865 87.7036 97.4413 86.425 97.4413 84.8404Z"/>
</mask>
<path d="M97.4413 84.8404C97.4413 83.2878 96.1868 81.9824 94.5914 81.9824H58.384C56.8229 81.9824 55.5151 83.2878 55.5151 84.8404C55.5151 86.425 56.8229 87.7036 58.384 87.7036H69.4557V93.4139C69.4557 95.015 70.7265 96.2719 72.3005 96.2719C73.8799 96.2719 75.1558 95.015 75.1558 93.4139V87.7036H94.5914C96.1865 87.7036 97.4413 86.425 97.4413 84.8404Z" fill="url(#paint14_linear_1299_199)" stroke="url(#paint15_linear_1299_199)" stroke-width="2" mask="url(#path-8-inside-8_1299_199)"/>
<mask id="path-9-inside-9_1299_199" fill="white">
<path d="M113.662 96.1036H112.317V90.7819C112.317 89.1625 111.059 87.916 109.467 87.916C107.885 87.916 106.609 89.1628 106.609 90.7819V96.1036H96.7008C95.1241 96.1036 93.8428 97.3792 93.8428 98.9694C93.8428 100.541 95.1241 101.811 96.7008 101.811H113.662C115.228 101.811 116.514 100.541 116.514 98.9694C116.514 97.3789 115.228 96.1036 113.662 96.1036Z"/>
</mask>
<path d="M113.662 96.1036H112.317V90.7819C112.317 89.1625 111.059 87.916 109.467 87.916C107.885 87.916 106.609 89.1628 106.609 90.7819V96.1036H96.7008C95.1241 96.1036 93.8428 97.3792 93.8428 98.9694C93.8428 100.541 95.1241 101.811 96.7008 101.811H113.662C115.228 101.811 116.514 100.541 116.514 98.9694C116.514 97.3789 115.228 96.1036 113.662 96.1036Z" fill="url(#paint16_linear_1299_199)" stroke="url(#paint17_linear_1299_199)" stroke-width="2" mask="url(#path-9-inside-9_1299_199)"/>
<mask id="path-10-inside-10_1299_199" fill="white">
<path d="M126.803 81.9829V77.3139H127.831C129.443 77.3139 130.718 76.0596 130.718 74.4775C130.718 72.8981 129.443 71.6035 127.831 71.6035H107.842C106.27 71.6035 104.981 72.8981 104.981 74.4775C104.981 76.0596 106.27 77.3139 107.842 77.3139H121.071V81.9829C121.071 83.5945 122.368 84.8409 123.945 84.8409C125.519 84.8409 126.803 83.5945 126.803 81.9829Z"/>
</mask>
<path d="M126.803 81.9829V77.3139H127.831C129.443 77.3139 130.718 76.0596 130.718 74.4775C130.718 72.8981 129.443 71.6035 127.831 71.6035H107.842C106.27 71.6035 104.981 72.8981 104.981 74.4775C104.981 76.0596 106.27 77.3139 107.842 77.3139H121.071V81.9829C121.071 83.5945 122.368 84.8409 123.945 84.8409C125.519 84.8409 126.803 83.5945 126.803 81.9829Z" fill="url(#paint18_linear_1299_199)" stroke="url(#paint19_linear_1299_199)" stroke-width="2" mask="url(#path-10-inside-10_1299_199)"/>
<mask id="path-11-inside-11_1299_199" fill="white">
<path d="M135.753 89.4395H128.521C126.926 89.4395 125.65 90.6967 125.65 92.287C125.65 93.8769 126.926 95.1233 128.521 95.1233H135.753C137.356 95.1233 138.645 93.8769 138.645 92.287C138.645 90.6967 137.356 89.4395 135.753 89.4395Z"/>
</mask>
<path d="M135.753 89.4395H128.521C126.926 89.4395 125.65 90.6967 125.65 92.287C125.65 93.8769 126.926 95.1233 128.521 95.1233H135.753C137.356 95.1233 138.645 93.8769 138.645 92.287C138.645 90.6967 137.356 89.4395 135.753 89.4395Z" fill="url(#paint20_linear_1299_199)" stroke="url(#paint21_linear_1299_199)" stroke-width="2" mask="url(#path-11-inside-11_1299_199)"/>
</g>
<defs>
<filter id="filter0_d_1299_199" x="-3" y="0" width="160" height="123.924" filterUnits="userSpaceOnUse" color-interpolation-filters="sRGB">
<feFlood flood-opacity="0" result="BackgroundImageFix"/>
<feColorMatrix in="SourceAlpha" type="matrix" values="0 0 0 0 0 0 0 0 0 0 0 0 0 0 0 0 0 0 127 0" result="hardAlpha"/>
<feOffset/>
<feGaussianBlur stdDeviation="1.5"/>
<feComposite in2="hardAlpha" operator="out"/>
<feColorMatrix type="matrix" values="0 0 0 0 0.929412 0 0 0 0 1 0 0 0 0 0.811765 0 0 0 1 0"/>
<feBlend mode="normal" in2="BackgroundImageFix" result="effect1_dropShadow_1299_199"/>
<feBlend mode="normal" in="SourceGraphic" in2="effect1_dropShadow_1299_199" result="shape"/>
</filter>
<linearGradient id="paint0_linear_1299_199" x1="77.0001" y1="3" x2="77.0001" y2="120.923" gradientUnits="userSpaceOnUse">
<stop stop-color="white"/>
<stop offset="1" stop-color="#3D3D3D"/>
</linearGradient>
<linearGradient id="paint1_linear_1299_199" x1="77.0001" y1="3" x2="77.0001" y2="120.923" gradientUnits="userSpaceOnUse">
<stop stop-color="white"/>
<stop offset="1" stop-color="#3D3D3D"/>
</linearGradient>
<linearGradient id="paint2_linear_1299_199" x1="110.983" y1="23.1191" x2="110.983" y2="28.8349" gradientUnits="userSpaceOnUse">
<stop stop-color="white"/>
<stop offset="1" stop-color="#3D3D3D"/>
</linearGradient>
<linearGradient id="paint3_linear_1299_199" x1="110.983" y1="23.1191" x2="110.983" y2="28.8349" gradientUnits="userSpaceOnUse">
<stop stop-color="white"/>
<stop offset="1" stop-color="#3D3D3D"/>
</linearGradient>
<linearGradient id="paint4_linear_1299_199" x1="104.603" y1="19.582" x2="104.603" y2="61.8358" gradientUnits="userSpaceOnUse">
<stop stop-color="white"/>
<stop offset="1" stop-color="#3D3D3D"/>
</linearGradient>
<linearGradient id="paint5_linear_1299_199" x1="104.603" y1="19.582" x2="104.603" y2="61.8358" gradientUnits="userSpaceOnUse">
<stop stop-color="white"/>
<stop offset="1" stop-color="#3D3D3D"/>
</linearGradient>
<linearGradient id="paint6_linear_1299_199" x1="68.1029" y1="14.1348" x2="68.1029" y2="32.8325" gradientUnits="userSpaceOnUse">
<stop stop-color="white"/>
<stop offset="1" stop-color="#3D3D3D"/>
</linearGradient>
<linearGradient id="paint7_linear_1299_199" x1="68.1029" y1="14.1348" x2="68.1029" y2="32.8325" gradientUnits="userSpaceOnUse">
<stop stop-color="white"/>
<stop offset="1" stop-color="#3D3D3D"/>
</linearGradient>
<linearGradient id="paint8_linear_1299_199" x1="47.2861" y1="31.3027" x2="47.2861" y2="56.7598" gradientUnits="userSpaceOnUse">
<stop stop-color="white"/>
<stop offset="1" stop-color="#3D3D3D"/>
</linearGradient>
<linearGradient id="paint9_linear_1299_199" x1="47.2861" y1="31.3027" x2="47.2861" y2="56.7598" gradientUnits="userSpaceOnUse">
<stop stop-color="white"/>
<stop offset="1" stop-color="#3D3D3D"/>
</linearGradient>
<linearGradient id="paint10_linear_1299_199" x1="27.9917" y1="50.8301" x2="27.9917" y2="64.6483" gradientUnits="userSpaceOnUse">
<stop stop-color="white"/>
<stop offset="1" stop-color="#3D3D3D"/>
</linearGradient>
<linearGradient id="paint11_linear_1299_199" x1="27.9917" y1="50.8301" x2="27.9917" y2="64.6483" gradientUnits="userSpaceOnUse">
<stop stop-color="white"/>
<stop offset="1" stop-color="#3D3D3D"/>
</linearGradient>
<linearGradient id="paint12_linear_1299_199" x1="68.0118" y1="48.2637" x2="68.0118" y2="85.446" gradientUnits="userSpaceOnUse">
<stop stop-color="white"/>
<stop offset="1" stop-color="#3D3D3D"/>
</linearGradient>
<linearGradient id="paint13_linear_1299_199" x1="68.0118" y1="48.2637" x2="68.0118" y2="85.446" gradientUnits="userSpaceOnUse">
<stop stop-color="white"/>
<stop offset="1" stop-color="#3D3D3D"/>
</linearGradient>
<linearGradient id="paint14_linear_1299_199" x1="76.4782" y1="81.9824" x2="76.4782" y2="96.2719" gradientUnits="userSpaceOnUse">
<stop stop-color="white"/>
<stop offset="1" stop-color="#3D3D3D"/>
</linearGradient>
<linearGradient id="paint15_linear_1299_199" x1="76.4782" y1="81.9824" x2="76.4782" y2="96.2719" gradientUnits="userSpaceOnUse">
<stop stop-color="white"/>
<stop offset="1" stop-color="#3D3D3D"/>
</linearGradient>
<linearGradient id="paint16_linear_1299_199" x1="105.179" y1="87.916" x2="105.179" y2="101.811" gradientUnits="userSpaceOnUse">
<stop stop-color="white"/>
<stop offset="1" stop-color="#3D3D3D"/>
</linearGradient>
<linearGradient id="paint17_linear_1299_199" x1="105.179" y1="87.916" x2="105.179" y2="101.811" gradientUnits="userSpaceOnUse">
<stop stop-color="white"/>
<stop offset="1" stop-color="#3D3D3D"/>
</linearGradient>
<linearGradient id="paint18_linear_1299_199" x1="117.85" y1="71.6035" x2="117.85" y2="84.8409" gradientUnits="userSpaceOnUse">
<stop stop-color="white"/>
<stop offset="1" stop-color="#3D3D3D"/>
</linearGradient>
<linearGradient id="paint19_linear_1299_199" x1="117.85" y1="71.6035" x2="117.85" y2="84.8409" gradientUnits="userSpaceOnUse">
<stop stop-color="white"/>
<stop offset="1" stop-color="#3D3D3D"/>
</linearGradient>
<linearGradient id="paint20_linear_1299_199" x1="132.147" y1="89.4395" x2="132.147" y2="95.1233" gradientUnits="userSpaceOnUse">
<stop stop-color="white"/>
<stop offset="1" stop-color="#3D3D3D"/>
</linearGradient>
<linearGradient id="paint21_linear_1299_199" x1="132.147" y1="89.4395" x2="132.147" y2="95.1233" gradientUnits="userSpaceOnUse">
<stop stop-color="white"/>
<stop offset="1" stop-color="#3D3D3D"/>
</linearGradient>
</defs>
</svg>
