<svg width="154" height="154" viewBox="0 0 154 154" fill="none" xmlns="http://www.w3.org/2000/svg">
<g id="Frame" clip-path="url(#clip0_469_211)">
<g id="Group" filter="url(#filter0_d_469_211)">
<path id="Vector" d="M151.134 78.0461C149.182 59.6759 138.895 44.8218 125.242 34.7032C111.44 24.4646 94.1728 18.8448 77.8166 18.834C60.8396 18.8367 50.3667 20.9915 43.4337 23.9719C36.5831 26.8727 33.2751 30.8839 31.4587 33.2489C24.0354 34.4608 16.6416 38.7677 10.774 44.8883C4.5439 51.4299 0.0162422 60.1767 0 69.789C0 80.3074 2.43994 89.1954 7.30868 95.806C11.6261 101.7 17.9227 105.573 25.4178 106.979C25.9105 109.824 27.0902 112.996 29.5301 115.897C32.0603 118.923 35.512 121.125 39.5924 122.524C43.6783 123.93 48.414 124.58 53.7995 124.585H76.3834C76.9398 126.007 77.619 127.363 78.5541 128.559C80.8527 131.502 84.1634 133.569 88.1292 134.863C92.114 136.166 96.8095 136.755 102.264 136.757C104.944 136.757 107.482 136.635 109.637 136.531H109.645C111.19 136.448 112.519 136.39 113.464 136.39C116.312 136.39 119.037 135.697 121.38 134.339C123.724 132.986 125.669 130.98 126.998 128.517C127.669 127.267 128.111 125.957 128.441 124.636C133.473 123.696 137.647 121.858 140.896 119.514C144.705 116.771 147.323 113.465 149.102 110.464C152.578 104.583 153.995 98.0574 154 92.0005C153.995 86.8382 152.951 82.0305 151.134 78.0461ZM143.13 106.926C141.732 109.283 139.716 111.811 136.839 113.88C133.957 115.947 130.21 117.604 125.091 118.187L122.228 118.51L122.017 121.384C121.929 122.625 121.543 124.02 120.893 125.222C120.139 126.598 119.138 127.616 117.91 128.33C116.677 129.039 115.201 129.446 113.464 129.448C112.239 129.448 110.843 129.521 109.296 129.598L109.874 129.571L109.298 129.598C107.149 129.704 104.733 129.819 102.264 129.819C95.6644 129.829 90.7448 128.81 87.6022 127.153C86.0228 126.33 84.8772 125.376 84.0278 124.292C83.1835 123.203 82.6108 121.964 82.2886 120.417L81.7159 117.644H53.7998C48.9843 117.644 44.9863 117.045 41.8513 115.966C38.7111 114.877 36.4553 113.356 34.8491 111.439C32.7557 108.94 32.1349 106.229 32.0552 103.848L31.9619 100.817L28.9469 100.503C21.8728 99.7267 16.6494 96.7357 12.8915 91.6856C9.15458 86.628 6.93872 79.2633 6.93872 69.7893C6.92248 62.4437 10.5102 55.2093 15.7946 49.6746C21.0472 44.124 27.9642 40.4484 33.6667 39.9103L34.9745 39.7744L35.8667 38.8101C36.2661 38.3733 36.5831 37.9525 36.8574 37.6063C38.6579 35.3583 40.5011 32.8522 46.1823 30.3458C51.8505 27.8926 61.4174 25.7673 77.8166 25.77C92.5778 25.7592 108.58 30.9531 121.109 40.2728C133.659 49.6108 142.699 62.8774 144.297 79.2474L144.358 79.8784L144.635 80.446C146.092 83.3865 147.07 87.5469 147.062 92.0002C147.062 96.9782 145.876 102.294 143.13 106.926Z" fill="#77C611"/>
<path id="Vector_2" d="M107.392 44.8349H114.628C116.184 44.8349 117.449 43.559 117.449 41.9555C117.449 40.3869 116.184 39.1191 114.628 39.1191H107.392C105.788 39.1191 104.518 40.3872 104.518 41.9555C104.518 43.559 105.788 44.8349 107.392 44.8349Z" fill="#77C611"/>
<path id="Vector_3" d="M73.4536 72.1733C73.4536 73.7635 74.7319 75.0499 76.3113 75.0499C77.864 75.0499 79.1612 73.7638 79.1612 72.1733V56.5868C79.1612 55.8652 79.3745 55.6971 79.4277 55.6306C80.3361 54.7385 83.7211 54.7385 86.0942 54.7385L86.1848 54.7704H104.901C105.263 54.7704 105.647 54.7385 106.076 54.7385C107.584 54.672 109.445 54.6079 110.226 55.3617C110.721 55.8463 111.009 56.9228 111.009 58.3659V67.9335V68.3594C110.947 70.3277 110.937 73.6411 113.153 75.8915C114.016 76.7812 115.619 77.8358 118.235 77.8358H132.94C134.485 77.8358 135.753 76.5626 135.753 74.9618C135.753 73.3984 134.485 72.0987 132.94 72.0987H118.235L117.207 71.8562C116.685 71.3157 116.719 69.3501 116.719 68.4072V58.3656C116.719 55.2655 115.851 52.8682 114.194 51.2675C111.643 48.8197 108.172 48.9211 105.884 49.0167C105.506 49.0167 105.192 49.0303 104.901 49.0303H95.4675C95.5794 48.2416 95.5794 47.4482 95.5499 46.7344V38.4322C95.5499 36.8715 94.2662 35.582 92.7081 35.582C91.1182 35.582 89.8718 36.8712 89.8718 38.4322V46.7795C89.8718 47.4478 89.8718 48.5054 89.7304 48.7797C89.7304 48.7797 89.3391 49.03 87.8313 49.03C87.3975 49.03 86.9313 49.03 86.4224 49.03C82.5363 48.9818 78.0673 48.9686 75.4093 51.5788C74.5409 52.4577 73.4542 54.0476 73.4542 56.5862V72.1733H73.4536Z" fill="#77C611"/>
<path id="Vector_4" d="M64.2702 48.8325C65.8656 48.8325 67.1442 47.5247 67.1442 45.9667V41.8779H71.9356C73.4859 41.8779 74.7669 40.5941 74.7669 39.0042C74.7669 37.4516 73.4859 36.1489 71.9356 36.1489H67.1442V33.0006C67.1442 31.4266 65.8656 30.1348 64.2702 30.1348C62.72 30.1348 61.439 31.4263 61.439 33.0006V45.9667C61.439 47.5247 62.72 48.8325 64.2702 48.8325Z" fill="#77C611"/>
<path id="Vector_5" d="M33.3388 53.0364H45.21C47.1464 52.9675 48.9893 52.9675 49.8577 53.8807C50.6274 54.632 51.0509 56.3203 51.0509 58.7443V69.8886C51.0509 71.4652 52.3241 72.7598 53.9326 72.7598C55.4829 72.7598 56.7774 71.4655 56.7774 69.8886V67.5178H61.2549C62.8343 67.5178 64.0942 66.2313 64.0942 64.6574C64.0942 63.078 62.8346 61.7702 61.2549 61.7702H56.7774V58.7443C56.7774 54.632 55.8345 51.7208 53.8821 49.8003C51.3492 47.2593 47.9267 47.2833 45.1965 47.3074H33.3388C31.7194 47.3074 30.478 48.6044 30.478 50.1573C30.478 51.7445 31.7194 53.0364 33.3388 53.0364Z" fill="#77C611"/>
<path id="Vector_6" d="M40.8736 69.704C40.8736 68.1246 39.5607 66.8301 38.0213 66.8301H17.9838C16.4017 66.8301 15.1099 68.1246 15.1099 69.704C15.1099 71.278 16.4017 72.5699 17.9838 72.5699H25.2471V77.7851C25.2471 79.3751 26.5068 80.6483 28.0702 80.6483C29.695 80.6483 30.9547 79.3751 30.9547 77.7851V72.5699H38.0213C39.5607 72.5699 40.8736 71.2777 40.8736 69.704Z" fill="#77C611"/>
<path id="Vector_7" d="M58.5249 88.4477C59.0257 88.4477 59.5 88.4477 59.9232 88.4477H82.9943C88.2574 88.4477 92.25 87.0521 94.9053 84.2716C98.9857 79.9515 98.7008 73.5536 98.4903 69.3267C98.453 68.5197 98.4157 67.7609 98.4157 67.1241C98.4157 65.5312 97.1374 64.2637 95.5258 64.2637C93.9677 64.2637 92.7081 65.5315 92.7081 67.1241C92.7081 67.8484 92.7453 68.6794 92.7826 69.5637C92.9583 73.2501 93.1556 77.7862 90.7211 80.3537C89.2349 81.9358 86.6058 82.7268 82.9943 82.7268H59.9232C59.5211 82.7268 59.1111 82.7268 58.6154 82.7268C54.0637 82.6576 46.4085 82.5349 41.5452 87.3345C38.8177 90.0247 37.4302 93.8148 37.4302 98.5825C37.4302 100.132 38.6844 101.446 40.2828 101.446C41.8408 101.446 43.1432 100.133 43.1432 98.5825C43.1432 95.3437 43.9234 92.9943 45.5642 91.3884C48.7071 88.3039 54.6255 88.3944 58.5249 88.4477Z" fill="#77C611"/>
<path id="Vector_8" d="M97.4413 100.84C97.4413 99.2878 96.1868 97.9824 94.5914 97.9824H58.384C56.8229 97.9824 55.5151 99.2878 55.5151 100.84C55.5151 102.425 56.8229 103.704 58.384 103.704H69.4557V109.414C69.4557 111.015 70.7265 112.272 72.3005 112.272C73.8799 112.272 75.1558 111.015 75.1558 109.414V103.704H94.5914C96.1865 103.704 97.4413 102.425 97.4413 100.84Z" fill="#77C611"/>
<path id="Vector_9" d="M113.662 112.104H112.317V106.782C112.317 105.162 111.059 103.916 109.467 103.916C107.885 103.916 106.609 105.163 106.609 106.782V112.104H96.7008C95.1241 112.104 93.8428 113.379 93.8428 114.969C93.8428 116.541 95.1241 117.811 96.7008 117.811H113.662C115.228 117.811 116.514 116.541 116.514 114.969C116.514 113.379 115.228 112.104 113.662 112.104Z" fill="#77C611"/>
<path id="Vector_10" d="M126.803 97.9829V93.3139H127.831C129.443 93.3139 130.718 92.0596 130.718 90.4775C130.718 88.8981 129.443 87.6035 127.831 87.6035H107.842C106.27 87.6035 104.981 88.8981 104.981 90.4775C104.981 92.0596 106.27 93.3139 107.842 93.3139H121.071V97.9829C121.071 99.5945 122.368 100.841 123.945 100.841C125.519 100.841 126.803 99.5945 126.803 97.9829Z" fill="#77C611"/>
<path id="Vector_11" d="M135.753 105.439H128.521C126.926 105.439 125.65 106.697 125.65 108.287C125.65 109.877 126.926 111.123 128.521 111.123H135.753C137.356 111.123 138.645 109.877 138.645 108.287C138.645 106.697 137.356 105.439 135.753 105.439Z" fill="#77C611"/>
</g>
</g>
<defs>
<filter id="filter0_d_469_211" x="-3" y="15.834" width="160" height="123.924" filterUnits="userSpaceOnUse" color-interpolation-filters="sRGB">
<feFlood flood-opacity="0" result="BackgroundImageFix"/>
<feColorMatrix in="SourceAlpha" type="matrix" values="0 0 0 0 0 0 0 0 0 0 0 0 0 0 0 0 0 0 127 0" result="hardAlpha"/>
<feOffset/>
<feGaussianBlur stdDeviation="1.5"/>
<feComposite in2="hardAlpha" operator="out"/>
<feColorMatrix type="matrix" values="0 0 0 0 0.52549 0 0 0 0 0.839216 0 0 0 0 0.0745098 0 0 0 1 0"/>
<feBlend mode="normal" in2="BackgroundImageFix" result="effect1_dropShadow_469_211"/>
<feBlend mode="normal" in="SourceGraphic" in2="effect1_dropShadow_469_211" result="shape"/>
</filter>
<clipPath id="clip0_469_211">
<rect width="154" height="154" fill="white"/>
</clipPath>
</defs>
</svg>
