<svg width="100" height="136" viewBox="0 0 100 136" fill="none" xmlns="http://www.w3.org/2000/svg">
<g id="Group 17">
<g id="Group">
<g id="Group_2">
<path id="Vector" d="M93.8875 31.8959C87.919 36.2315 81.586 35.9114 79.3189 35.9114V91.1665C79.3189 100.196 70.4783 107.517 59.5727 107.517C48.6671 107.517 39.8264 100.196 39.8264 91.1665V35.9114H37.9687C33.0094 35.9114 28.4794 34.3697 25.0324 31.8383C22.2459 29.7919 20.171 27.0979 19.1528 24.043C7.99692 27.3776 0 36.2304 0 46.6029V112.022C0 125.244 12.9908 136 28.958 136H71.0416C87.0095 136 100 125.243 100 112.022V46.6029C99.9994 41.0632 97.7124 35.9603 93.8875 31.8959ZM21.3188 98.425C17.3005 98.425 14.0424 95.7273 14.0424 92.4001C14.0424 89.0723 17.3001 86.3751 21.3188 86.3751C25.3372 86.3751 28.5952 89.0726 28.5952 92.4001C28.5952 95.7273 25.3372 98.425 21.3188 98.425ZM21.3188 79.3129C17.2998 79.3129 14.0424 76.6155 14.0424 73.288C14.0424 69.9602 17.3005 67.263 21.3188 67.263C25.3372 67.263 28.5952 69.9605 28.5952 73.288C28.5952 76.6158 25.3372 79.3129 21.3188 79.3129ZM21.3188 61.1242C17.3005 61.1242 14.0424 58.4267 14.0424 55.0992C14.0424 51.7717 17.3005 49.0743 21.3188 49.0743C25.3372 49.0743 28.5952 51.772 28.5952 55.0992C28.5952 58.4265 25.3372 61.1242 21.3188 61.1242Z" fill="#77C611"/>
</g>
</g>
<g id="Group_3">
<g id="Group_4">
<path id="Vector_2" d="M81.0288 0H37.9652C33.0916 0 29.1406 3.27119 29.1406 7.30685V19.7475C29.1409 23.7829 33.0916 27.0541 37.9652 27.0541H49.0097C49.0097 31.2361 49.0097 81.4626 49.0097 83.2811C49.0097 85.7269 51.4045 87.7096 54.3581 87.7096H64.635C67.5889 87.7096 69.9834 85.7267 69.9834 83.2811C69.9834 81.4626 69.9834 31.2401 69.9834 27.0541H81.0279C85.9015 27.0541 89.8522 23.7829 89.8522 19.7472V7.30685C89.8531 3.27119 85.9025 0 81.0288 0Z" fill="#77C611"/>
</g>
</g>
</g>
</svg>
