<svg width="100" height="136" viewBox="0 0 100 136" fill="none" xmlns="http://www.w3.org/2000/svg">
<path d="M93.8894 31.8959C87.9209 36.2315 81.588 35.9114 79.3209 35.9114V91.1665C79.3209 100.196 70.4803 107.517 59.5746 107.517C48.669 107.517 39.8284 100.196 39.8284 91.1665V35.9114H37.9706C33.0114 35.9114 28.4814 34.3697 25.0344 31.8383C22.2479 29.7919 20.1729 27.0979 19.1547 24.043C7.99887 27.3776 0.00195312 36.2304 0.00195312 46.6029V112.022C0.00195312 125.244 12.9928 136 28.96 136H71.0436C87.0114 136 100.002 125.243 100.002 112.022V46.6029C100.001 41.0632 97.7143 35.9603 93.8894 31.8959ZM21.3208 98.425C17.3024 98.425 14.0444 95.7273 14.0444 92.4001C14.0444 89.0723 17.3021 86.3751 21.3208 86.3751C25.3391 86.3751 28.5972 89.0726 28.5972 92.4001C28.5972 95.7273 25.3391 98.425 21.3208 98.425ZM21.3208 79.3129C17.3018 79.3129 14.0444 76.6155 14.0444 73.288C14.0444 69.9602 17.3024 67.263 21.3208 67.263C25.3391 67.263 28.5972 69.9605 28.5972 73.288C28.5972 76.6158 25.3391 79.3129 21.3208 79.3129ZM21.3208 61.1242C17.3024 61.1242 14.0444 58.4267 14.0444 55.0992C14.0444 51.7717 17.3024 49.0743 21.3208 49.0743C25.3391 49.0743 28.5972 51.772 28.5972 55.0992C28.5972 58.4265 25.3391 61.1242 21.3208 61.1242Z" fill="url(#paint0_linear_1299_179)"/>
<path d="M81.031 0H37.9674C33.0938 0 29.1428 3.27119 29.1428 7.30685V19.7475C29.1431 23.7829 33.0938 27.0541 37.9674 27.0541H49.0119C49.0119 31.2361 49.0119 81.4626 49.0119 83.2811C49.0119 85.727 51.4067 87.7096 54.3603 87.7096H64.6372C67.5911 87.7096 69.9856 85.7267 69.9856 83.2811C69.9856 81.4626 69.9856 31.2401 69.9856 27.0541H81.0301C85.9037 27.0541 89.8543 23.7829 89.8543 19.7472V7.30685C89.8553 3.27119 85.9047 0 81.031 0Z" fill="url(#paint1_linear_1299_179)"/>
<defs>
<linearGradient id="paint0_linear_1299_179" x1="50.002" y1="24.043" x2="50.002" y2="136" gradientUnits="userSpaceOnUse">
<stop stop-color="white"/>
<stop offset="1" stop-color="#3D3D3D"/>
</linearGradient>
<linearGradient id="paint1_linear_1299_179" x1="59.4986" y1="0" x2="59.4986" y2="87.7096" gradientUnits="userSpaceOnUse">
<stop stop-color="white"/>
<stop offset="1" stop-color="#3D3D3D"/>
</linearGradient>
</defs>
</svg>
